<?xml version="1.0" standalone="yes"?>

<svg version="1.1" viewBox="0.0 0.0 960.0 540.0" fill="none" stroke="none" stroke-linecap="square" stroke-miterlimit="10" xmlns="http://www.w3.org/2000/svg" xmlns:xlink="http://www.w3.org/1999/xlink"><clipPath id="gb88115d54_0_102.0"><path d="m0 0l960.0 0l0 540.0l-960.0 0l0 -540.0z" clip-rule="nonzero"></path></clipPath><g clip-path="url(#gb88115d54_0_102.0)"><path fill="#6fa8dc" d="m0 0l960.0 0l0 540.0l-960.0 0z" fill-rule="nonzero"></path><path fill="#000000" fill-opacity="0.0" d="m0 0l329.16534 0l0 540.0l-329.16534 0z" fill-rule="nonzero"></path><defs><linearGradient id="gb88115d54_0_102.1" gradientUnits="userSpaceOnUse" gradientTransform="matrix(10.250355105280098 0.0 0.0 7.687766328960074 0.3333333333333333 476.0)" spreadMethod="pad" x1="3.251955586114298" y1="-4.162457420103278" x2="-4.825607718005169" y2="2.148069566788097"><stop offset="0.0" stop-color="#0090da"></stop><stop offset="0.54" stop-color="#0090da"></stop><stop offset="0.98" stop-color="#2bc4f3"></stop><stop offset="1.0" stop-color="#00aeee"></stop></linearGradient></defs><path fill="url(#gb88115d54_0_102.1)" d="m67.0 476.0l-66.666664 0l0 64.0l0.33333334 0l66.333336 -64.0z" fill-rule="nonzero"></path><defs><linearGradient id="gb88115d54_0_102.2" gradientUnits="userSpaceOnUse" gradientTransform="matrix(10.250373248137869 0.0 0.0 7.687779936103402 0.3333333333333333 412.0)" spreadMethod="pad" x1="9.755742310960867" y1="4.16252696409724" x2="1.6782548330262554" y2="-2.148126549600847"><stop offset="0.0" stop-color="#aaaaaa"></stop><stop offset="0.54" stop-color="#aaaaaa"></stop><stop offset="0.98" stop-color="#d2d2d2"></stop><stop offset="1.0" stop-color="#b9b9b9"></stop></linearGradient></defs><path fill="url(#gb88115d54_0_102.2)" d="m67.0 476.0l-66.333336 -64.0l-0.33333334 0l0 64.0l66.666664 0z" fill-rule="nonzero"></path><defs><linearGradient id="gb88115d54_0_102.3" gradientUnits="userSpaceOnUse" gradientTransform="matrix(11.122941656159647 0.0 0.0 7.066903789796242 881.6666666666666 0.2118110156121842)" spreadMethod="pad" x1="3.5211611253418265" y1="13.598021519445892" x2="12.305071404631423" y2="6.774331074259939"><stop offset="0.0" stop-color="#0090da"></stop><stop offset="0.54" stop-color="#0090da"></stop><stop offset="0.98" stop-color="#2bc4f3"></stop><stop offset="1.0" stop-color="#00aeee"></stop></linearGradient></defs><path fill="url(#gb88115d54_0_102.3)" d="m960.0 0.21181102l-78.33331 64.06394l78.33331 0l0 -64.06394z" fill-rule="nonzero"></path><defs><linearGradient id="gb88115d54_0_102.4" gradientUnits="userSpaceOnUse" gradientTransform="matrix(11.112538943282605 0.0 0.0 7.060294479658019 881.6666666666666 64.27566744586615)" spreadMethod="pad" x1="10.573641235338691" y1="4.514503177229553" x2="1.8145454932857727" y2="-2.324119750489369"><stop offset="0.0" stop-color="#aaaaaa"></stop><stop offset="0.54" stop-color="#aaaaaa"></stop><stop offset="0.98" stop-color="#d2d2d2"></stop><stop offset="1.0" stop-color="#b9b9b9"></stop></linearGradient></defs><path fill="url(#gb88115d54_0_102.4)" d="m881.6667 64.275665l78.33331 63.746277l0 -63.746277l-78.33331 0z" fill-rule="nonzero"></path><defs><linearGradient id="gb88115d54_0_102.5" gradientUnits="userSpaceOnUse" gradientTransform="matrix(13.115325619908944 0.0 0.0 8.33275469681345 778.4999179790026 0.0)" spreadMethod="pad" x1="6.226653363537162" y1="11.570433277664483" x2="13.132833986333354" y2="0.42070523965591794"><stop offset="0.0" stop-color="#cd118c"></stop><stop offset="0.54" stop-color="#cd118c"></stop><stop offset="0.98" stop-color="#f074ac"></stop><stop offset="1.0" stop-color="#eb008b"></stop></linearGradient></defs><path fill="url(#gb88115d54_0_102.5)" d="m863.49994 64.27572l78.33331 -64.27572l-85.0 0l-78.33331 64.27572l85.0 0l0 0z" fill-rule="nonzero"></path><defs><linearGradient id="gb88115d54_0_102.6" gradientUnits="userSpaceOnUse" gradientTransform="matrix(11.122941656159647 0.0 0.0 7.066903789796242 881.6666666666666 137.55211409120736)" spreadMethod="pad" x1="3.5211611253418265" y1="13.598021519445892" x2="12.305071404631423" y2="6.774331074259939"><stop offset="0.0" stop-color="#cd118c"></stop><stop offset="0.54" stop-color="#cd118c"></stop><stop offset="0.98" stop-color="#f074ac"></stop><stop offset="1.0" stop-color="#eb008b"></stop></linearGradient></defs><path fill="url(#gb88115d54_0_102.6)" d="m960.0 137.55211l-78.33331 64.06395l78.33331 0l0 -64.06395z" fill-rule="nonzero"></path><defs><linearGradient id="gb88115d54_0_102.7" gradientUnits="userSpaceOnUse" gradientTransform="matrix(11.122961322960835 0.0 0.0 7.066916284997254 881.6666666666666 201.61605971128608)" spreadMethod="pad" x1="-3.521244525575753" y1="4.532649363539951" x2="5.2625852894615575" y2="11.356475443719912"><stop offset="0.0" stop-color="#ffd700"></stop><stop offset="0.54" stop-color="#ffd700"></stop><stop offset="0.98" stop-color="#fff7a9"></stop><stop offset="1.0" stop-color="#fff100"></stop></linearGradient></defs><path fill="url(#gb88115d54_0_102.7)" d="m881.6667 201.61606l78.33331 64.063934l0 -64.063934l-78.33331 0z" fill-rule="nonzero"></path><defs><linearGradient id="gb88115d54_0_102.8" gradientUnits="userSpaceOnUse" gradientTransform="matrix(13.099636286018043 0.0 0.0 8.322786559196583 778.4999179790026 64.27566744586615)" spreadMethod="pad" x1="-6.23426978303466" y1="3.8486933881523244" x2="0.6470563836738938" y2="14.995344051617684"><stop offset="0.0" stop-color="#ffd700"></stop><stop offset="0.54" stop-color="#ffd700"></stop><stop offset="0.98" stop-color="#fff7a9"></stop><stop offset="1.0" stop-color="#fff100"></stop></linearGradient></defs><path fill="url(#gb88115d54_0_102.8)" d="m863.49994 64.275665l78.33331 64.06395l-85.0 0l-78.33331 -64.06395l85.0 0l0 0z" fill-rule="nonzero"></path><path fill="#000000" fill-opacity="0.0" d="m48.0 21.625038l722.2677 0l0 90.015755l-722.2677 0z" fill-rule="nonzero"></path><path fill="#ffffff" d="m60.515625 90.72079l0 -34.359375l12.890625 0q3.9375 0 6.3125 1.046875q2.390625 1.03125 3.734375 3.203125q1.34375 2.171875 1.34375 4.53125q0 2.203125 -1.203125 4.15625q-1.1875 1.9375 -3.59375 3.140625q3.109375 0.90625 4.78125 3.109375q1.6875 2.203125 1.6875 5.203125q0 2.421875 -1.03125 4.5q-1.015625 2.0625 -2.515625 3.1875q-1.5 1.125 -3.765625 1.703125q-2.25 0.578125 -5.53125 0.578125l-13.109375 0zm4.546875 -19.921875l7.4375 0q3.015625 0 4.328125 -0.40625q1.734375 -0.515625 2.609375 -1.703125q0.890625 -1.203125 0.890625 -3.0q0 -1.71875 -0.828125 -3.015625q-0.8125 -1.296875 -2.34375 -1.78125q-1.515625 -0.484375 -5.21875 -0.484375l-6.875 0l0 10.390625zm0 15.859375l8.5625 0q2.203125 0 3.09375 -0.15625q1.5625 -0.28125 2.609375 -0.9375q1.0625 -0.65625 1.734375 -1.90625q0.6875 -1.265625 0.6875 -2.90625q0 -1.921875 -0.984375 -3.328125q-0.984375 -1.421875 -2.734375 -2.0q-1.734375 -0.578125 -5.015625 -0.578125l-7.953125 0l0 11.8125zm27.078125 4.0625l0 -24.890625l3.796875 0l0 3.765625q1.453125 -2.640625 2.671875 -3.484375q1.234375 -0.84375 2.71875 -0.84375q2.125 0 4.328125 1.359375l-1.453125 3.90625q-1.546875 -0.90625 -3.09375 -0.90625q-1.375 0 -2.484375 0.828125q-1.09375 0.828125 -1.5625 2.3125q-0.703125 2.25 -0.703125 4.921875l0 13.03125l-4.21875 0zm32.265625 -3.078125q-2.34375 2.0 -4.515625 2.828125q-2.15625 0.8125 -4.640625 0.8125q-4.109375 0 -6.3125 -2.0q-2.203125 -2.015625 -2.203125 -5.125q0 -1.828125 0.828125 -3.34375q0.84375 -1.515625 2.1875 -2.421875q1.34375 -0.921875 3.03125 -1.390625q1.25 -0.328125 3.75 -0.625q5.109375 -0.609375 7.53125 -1.453125q0.015625 -0.875 0.015625 -1.109375q0 -2.578125 -1.1875 -3.625q-1.625 -1.4375 -4.8125 -1.4375q-2.96875 0 -4.390625 1.046875q-1.421875 1.046875 -2.09375 3.6875l-4.125 -0.5625q0.5625 -2.640625 1.84375 -4.265625q1.296875 -1.640625 3.734375 -2.515625q2.4375 -0.875 5.640625 -0.875q3.1875 0 5.171875 0.75q2.0 0.75 2.9375 1.890625q0.9375 1.125 1.3125 2.859375q0.21875 1.078125 0.21875 3.890625l0 5.625q0 5.890625 0.265625 7.453125q0.265625 1.546875 1.0625 2.984375l-4.40625 0q-0.65625 -1.3125 -0.84375 -3.078125zm-0.34375 -9.421875q-2.296875 0.9375 -6.890625 1.59375q-2.609375 0.375 -3.6875 0.84375q-1.078125 0.46875 -1.671875 1.375q-0.578125 0.90625 -0.578125 2.0q0 1.6875 1.28125 2.8125q1.28125 1.125 3.734375 1.125q2.4375 0 4.328125 -1.0625q1.90625 -1.0625 2.796875 -2.921875q0.6875 -1.421875 0.6875 -4.21875l0 -1.546875zm10.8203125 -17.015625l0 -4.84375l4.21875 0l0 4.84375l-4.21875 0zm0 29.515625l0 -24.890625l4.21875 0l0 24.890625l-4.21875 0zm10.6484375 0l0 -24.890625l3.796875 0l0 3.53125q2.734375 -4.09375 7.921875 -4.09375q2.25 0 4.125 0.8125q1.890625 0.796875 2.828125 2.109375q0.9375 1.3125 1.3125 3.125q0.234375 1.171875 0.234375 4.09375l0 15.3125l-4.21875 0l0 -15.140625q0 -2.578125 -0.5 -3.859375q-0.484375 -1.28125 -1.734375 -2.03125q-1.25 -0.765625 -2.9375 -0.765625q-2.703125 0 -4.65625 1.71875q-1.953125 1.703125 -1.953125 6.484375l0 13.59375l-4.21875 0zm25.007812 -7.4375l4.171875 -0.65625q0.34375 2.515625 1.953125 3.859375q1.609375 1.328125 4.484375 1.328125q2.90625 0 4.3125 -1.1875q1.40625 -1.1875 1.40625 -2.78125q0 -1.421875 -1.234375 -2.25q-0.875 -0.5625 -4.3125 -1.421875q-4.640625 -1.171875 -6.4375 -2.03125q-1.796875 -0.859375 -2.71875 -2.359375q-0.921875 -1.515625 -0.921875 -3.34375q0 -1.671875 0.75 -3.078125q0.765625 -1.421875 2.078125 -2.359375q0.984375 -0.734375 2.6875 -1.234375q1.703125 -0.5 3.640625 -0.5q2.9375 0 5.140625 0.84375q2.21875 0.84375 3.265625 2.28125q1.0625 1.4375 1.46875 3.859375l-4.125 0.5625q-0.28125 -1.921875 -1.640625 -3.0q-1.34375 -1.078125 -3.796875 -1.078125q-2.90625 0 -4.15625 0.96875q-1.234375 0.953125 -1.234375 2.234375q0 0.828125 0.515625 1.484375q0.515625 0.671875 1.609375 1.125q0.640625 0.234375 3.734375 1.078125q4.46875 1.1875 6.234375 1.953125q1.78125 0.765625 2.78125 2.21875q1.015625 1.453125 1.015625 3.609375q0 2.109375 -1.234375 3.96875q-1.234375 1.859375 -3.5625 2.890625q-2.3125 1.015625 -5.234375 1.015625q-4.859375 0 -7.40625 -2.015625q-2.53125 -2.015625 -3.234375 -5.984375zm34.890625 3.65625l0.609375 3.734375q-1.78125 0.375 -3.1875 0.375q-2.296875 0 -3.5625 -0.71875q-1.265625 -0.734375 -1.78125 -1.921875q-0.515625 -1.1875 -0.515625 -4.984375l0 -14.3125l-3.09375 0l0 -3.28125l3.09375 0l0 -6.171875l4.203125 -2.53125l0 8.703125l4.234375 0l0 3.28125l-4.234375 0l0 14.546875q0 1.8125 0.21875 2.328125q0.21875 0.515625 0.71875 0.828125q0.515625 0.296875 1.453125 0.296875q0.703125 0 1.84375 -0.171875zm2.5546875 -8.671875q0 -6.90625 3.84375 -10.234375q3.21875 -2.765625 7.828125 -2.765625q5.140625 0 8.390625 3.359375q3.265625 3.359375 3.265625 9.296875q0 4.796875 -1.453125 7.5625q-1.4375 2.75 -4.1875 4.28125q-2.75 1.515625 -6.015625 1.515625q-5.21875 0 -8.453125 -3.34375q-3.21875 -3.359375 -3.21875 -9.671875zm4.34375 0q0 4.78125 2.078125 7.171875q2.09375 2.375 5.25 2.375q3.140625 0 5.21875 -2.390625q2.09375 -2.390625 2.09375 -7.296875q0 -4.609375 -2.09375 -6.984375q-2.09375 -2.390625 -5.21875 -2.390625q-3.15625 0 -5.25 2.375q-2.078125 2.359375 -2.078125 7.140625zm23.882812 12.453125l0 -24.890625l3.796875 0l0 3.765625q1.453125 -2.640625 2.671875 -3.484375q1.234375 -0.84375 2.71875 -0.84375q2.125 0 4.328125 1.359375l-1.453125 3.90625q-1.546875 -0.90625 -3.09375 -0.90625q-1.375 0 -2.484375 0.828125q-1.09375 0.828125 -1.5625 2.3125q-0.703125 2.25 -0.703125 4.921875l0 13.03125l-4.21875 0zm16.03125 0l0 -24.890625l3.765625 0l0 3.484375q1.171875 -1.828125 3.109375 -2.9375q1.953125 -1.109375 4.4375 -1.109375q2.765625 0 4.53125 1.15625q1.78125 1.140625 2.5 3.203125q2.953125 -4.359375 7.6875 -4.359375q3.703125 0 5.6875 2.046875q2.0 2.046875 2.0 6.3125l0 17.09375l-4.1875 0l0 -15.6875q0 -2.53125 -0.421875 -3.640625q-0.40625 -1.109375 -1.484375 -1.78125q-1.078125 -0.6875 -2.53125 -0.6875q-2.625 0 -4.359375 1.75q-1.734375 1.734375 -1.734375 5.578125l0 14.46875l-4.21875 0l0 -16.171875q0 -2.8125 -1.03125 -4.21875q-1.03125 -1.40625 -3.375 -1.40625q-1.78125 0 -3.296875 0.9375q-1.5 0.9375 -2.1875 2.75q-0.671875 1.796875 -0.671875 5.1875l0 12.921875l-4.21875 0zm40.0 -29.515625l0 -4.84375l4.21875 0l0 4.84375l-4.21875 0zm0 29.515625l0 -24.890625l4.21875 0l0 24.890625l-4.21875 0zm10.6484375 0l0 -24.890625l3.796875 0l0 3.53125q2.734375 -4.09375 7.921875 -4.09375q2.25 0 4.125 0.8125q1.890625 0.796875 2.828125 2.109375q0.9375 1.3125 1.3125 3.125q0.234375 1.171875 0.234375 4.09375l0 15.3125l-4.21875 0l0 -15.140625q0 -2.578125 -0.5 -3.859375q-0.484375 -1.28125 -1.734375 -2.03125q-1.25 -0.765625 -2.9375 -0.765625q-2.703125 0 -4.65625 1.71875q-1.953125 1.703125 -1.953125 6.484375l0 13.59375l-4.21875 0zm25.914062 2.0625l4.109375 0.609375q0.25 1.90625 1.421875 2.765625q1.578125 1.171875 4.296875 1.171875q2.921875 0 4.515625 -1.171875q1.59375 -1.171875 2.15625 -3.28125q0.328125 -1.28125 0.3125 -5.421875q-2.765625 3.265625 -6.890625 3.265625q-5.140625 0 -7.953125 -3.703125q-2.8125 -3.703125 -2.8125 -8.890625q0 -3.5625 1.28125 -6.5625q1.296875 -3.015625 3.75 -4.65625q2.453125 -1.640625 5.75 -1.640625q4.40625 0 7.265625 3.5625l0 -3.0l3.890625 0l0 21.515625q0 5.8125 -1.1875 8.234375q-1.171875 2.4375 -3.75 3.84375q-2.5625 1.40625 -6.3125 1.40625q-4.453125 0 -7.203125 -2.015625q-2.734375 -2.0 -2.640625 -6.03125zm3.5 -14.953125q0 4.890625 1.9375 7.140625q1.953125 2.25 4.875 2.25q2.90625 0 4.875 -2.234375q1.96875 -2.234375 1.96875 -7.015625q0 -4.578125 -2.03125 -6.890625q-2.015625 -2.328125 -4.875 -2.328125q-2.8125 0 -4.78125 2.296875q-1.96875 2.28125 -1.96875 6.78125z" fill-rule="nonzero"></path><path fill="#000000" fill-opacity="0.0" d="m48.0 111.64042l866.1103 0l0 303.77954l-866.1103 0z" fill-rule="nonzero"></path><path fill="#f3f3f3" d="m107.136444 151.7098l3.84375 -0.328125q0.265625 2.296875 1.265625 3.78125q1.0 1.484375 3.09375 2.40625q2.09375 0.90625 4.71875 0.90625q2.34375 0 4.125 -0.6875q1.78125 -0.703125 2.65625 -1.90625q0.875 -1.203125 0.875 -2.640625q0 -1.453125 -0.84375 -2.53125q-0.84375 -1.078125 -2.78125 -1.8125q-1.234375 -0.484375 -5.484375 -1.5q-4.234375 -1.015625 -5.9375 -1.921875q-2.203125 -1.15625 -3.28125 -2.859375q-1.078125 -1.71875 -1.078125 -3.84375q0 -2.328125 1.3125 -4.34375q1.328125 -2.03125 3.859375 -3.078125q2.546875 -1.0625 5.65625 -1.0625q3.421875 0 6.03125 1.109375q2.625 1.109375 4.03125 3.25q1.40625 2.140625 1.515625 4.84375l-3.90625 0.296875q-0.3125 -2.921875 -2.140625 -4.40625q-1.8125 -1.5 -5.359375 -1.5q-3.6875 0 -5.390625 1.359375q-1.6875 1.359375 -1.6875 3.265625q0 1.65625 1.203125 2.734375q1.171875 1.0625 6.140625 2.1875q4.96875 1.125 6.8125 1.96875q2.6875 1.234375 3.96875 3.140625q1.28125 1.890625 1.28125 4.375q0 2.453125 -1.40625 4.625q-1.40625 2.171875 -4.046875 3.390625q-2.640625 1.203125 -5.9375 1.203125q-4.171875 0 -7.0 -1.21875q-2.8125 -1.21875 -4.421875 -3.65625q-1.609375 -2.453125 -1.6875 -5.546875zm29.34201 18.4375l0 -30.84375l3.453125 0l0 2.890625q1.21875 -1.6875 2.75 -2.53125q1.53125 -0.859375 3.71875 -0.859375q2.84375 0 5.03125 1.46875q2.1875 1.46875 3.296875 4.140625q1.109375 2.671875 1.109375 5.875q0 3.421875 -1.234375 6.15625q-1.21875 2.734375 -3.5625 4.203125q-2.34375 1.453125 -4.921875 1.453125q-1.890625 0 -3.390625 -0.796875q-1.5 -0.796875 -2.46875 -2.015625l0 10.859375l-3.78125 0zm3.421875 -19.5625q0 4.296875 1.75 6.359375q1.75 2.046875 4.21875 2.046875q2.515625 0 4.3125 -2.125q1.796875 -2.125 1.796875 -6.609375q0 -4.25 -1.75 -6.375q-1.75 -2.125 -4.1875 -2.125q-2.421875 0 -4.28125 2.265625q-1.859375 2.25 -1.859375 6.5625zm35.567123 3.828125l3.90625 0.484375q-0.921875 3.421875 -3.421875 5.3125q-2.5 1.890625 -6.375 1.890625q-4.890625 0 -7.765625 -3.0q-2.859375 -3.015625 -2.859375 -8.453125q0 -5.640625 2.890625 -8.734375q2.90625 -3.109375 7.515625 -3.109375q4.484375 0 7.3125 3.046875q2.828125 3.03125 2.828125 8.5625q0 0.328125 -0.015625 1.0l-16.625 0q0.203125 3.671875 2.0625 5.625q1.875 1.953125 4.671875 1.953125q2.078125 0 3.546875 -1.078125q1.46875 -1.09375 2.328125 -3.5zm-12.40625 -6.109375l12.453125 0q-0.25 -2.8125 -1.421875 -4.21875q-1.8125 -2.171875 -4.6875 -2.171875q-2.609375 0 -4.390625 1.75q-1.765625 1.734375 -1.953125 4.640625zm20.863998 13.296875l0 -22.296875l3.40625 0l0 3.171875q2.453125 -3.671875 7.09375 -3.671875q2.015625 0 3.703125 0.71875q1.703125 0.71875 2.53125 1.90625q0.84375 1.171875 1.1875 2.78125q0.203125 1.0625 0.203125 3.6875l0 13.703125l-3.78125 0l0 -13.5625q0 -2.3125 -0.4375 -3.453125q-0.4375 -1.140625 -1.5625 -1.828125q-1.125 -0.6875 -2.640625 -0.6875q-2.40625 0 -4.171875 1.53125q-1.75 1.53125 -1.75 5.828125l0 12.171875l-3.78125 0zm38.192123 0l0 -2.8125q-2.109375 3.3125 -6.234375 3.3125q-2.65625 0 -4.90625 -1.46875q-2.234375 -1.46875 -3.46875 -4.09375q-1.21875 -2.640625 -1.21875 -6.0625q0 -3.34375 1.109375 -6.0625q1.125 -2.71875 3.34375 -4.15625q2.21875 -1.453125 4.96875 -1.453125q2.015625 0 3.59375 0.859375q1.578125 0.84375 2.5625 2.203125l0 -11.046875l3.765625 0l0 30.78125l-3.515625 0zm-11.9375 -11.125q0 4.28125 1.796875 6.40625q1.8125 2.109375 4.265625 2.109375q2.484375 0 4.203125 -2.015625q1.734375 -2.03125 1.734375 -6.1875q0 -4.578125 -1.765625 -6.71875q-1.75 -2.140625 -4.34375 -2.140625q-2.515625 0 -4.203125 2.0625q-1.6875 2.046875 -1.6875 6.484375zm51.85588 7.5l0 3.625l-20.343735 0q-0.03125 -1.359375 0.453125 -2.625q0.765625 -2.078125 2.46875 -4.09375q1.71875 -2.015625 4.953125 -4.65625q5.015625 -4.125 6.7812347 -6.515625q1.765625 -2.40625 1.765625 -4.546875q0 -2.25 -1.609375 -3.796875q-1.5937347 -1.546875 -4.1874847 -1.546875q-2.71875 0 -4.359375 1.640625q-1.640625 1.640625 -1.65625 4.53125l-3.890625 -0.390625q0.40625 -4.34375 3.0 -6.625q2.609375 -2.28125 7.0 -2.28125q4.4218597 0 6.9999847 2.453125q2.59375 2.453125 2.59375 6.09375q0 1.84375 -0.765625 3.640625q-0.75 1.78125 -2.5 3.75q-1.75 1.96875 -5.8281097 5.421875q-3.40625 2.84375 -4.375 3.875q-0.953125 1.015625 -1.59375 2.046875l15.093735 0zm3.8640137 -11.5625q0 -5.453125 1.125 -8.78125q1.125 -3.328125 3.34375 -5.125q2.21875 -1.8125 5.578125 -1.8125q2.46875 0 4.328125 1.0q1.875 1.0 3.09375 2.875q1.21875 1.875 1.90625 4.578125q0.703125 2.703125 0.703125 7.265625q0 5.421875 -1.125 8.75q-1.109375 3.328125 -3.328125 5.15625q-2.203125 1.8125 -5.578125 1.8125q-4.453125 0 -7.0 -3.203125q-3.046875 -3.84375 -3.046875 -12.515625zm3.890625 0q0 7.59375 1.765625 10.109375q1.78125 2.5 4.390625 2.5q2.59375 0 4.359375 -2.515625q1.78125 -2.53125 1.78125 -10.09375q0 -7.59375 -1.78125 -10.09375q-1.765625 -2.5 -4.40625 -2.5q-2.609375 0 -4.15625 2.203125q-1.953125 2.8125 -1.953125 10.390625zm32.730896 15.1875l0 -22.296875l3.390625 0l0 3.125q1.046875 -1.640625 2.78125 -2.625q1.75 -1.0 3.96875 -1.0q2.484375 0 4.0625 1.03125q1.59375 1.015625 2.25 2.875q2.640625 -3.90625 6.875 -3.90625q3.328125 0 5.109375 1.84375q1.78125 1.828125 1.78125 5.640625l0 15.3125l-3.75 0l0 -14.046875q0 -2.265625 -0.375 -3.265625q-0.359375 -1.0 -1.328125 -1.609375q-0.96875 -0.609375 -2.265625 -0.609375q-2.359375 0 -3.921875 1.578125q-1.546875 1.5625 -1.546875 5.0l0 12.953125l-3.78125 0l0 -14.484375q0 -2.515625 -0.921875 -3.78125q-0.921875 -1.265625 -3.015625 -1.265625q-1.59375 0 -2.953125 0.84375q-1.359375 0.84375 -1.96875 2.46875q-0.609375 1.609375 -0.609375 4.65625l0 11.5625l-3.78125 0zm35.56424 -26.4375l0 -4.34375l3.78125 0l0 4.34375l-3.78125 0zm0 26.4375l0 -22.296875l3.78125 0l0 22.296875l-3.78125 0zm9.445587 0l0 -22.296875l3.40625 0l0 3.171875q2.453125 -3.671875 7.09375 -3.671875q2.015625 0 3.703125 0.71875q1.703125 0.71875 2.53125 1.90625q0.84375 1.171875 1.1875 2.78125q0.203125 1.0625 0.203125 3.6875l0 13.703125l-3.78125 0l0 -13.5625q0 -2.3125 -0.4375 -3.453125q-0.4375 -1.140625 -1.5625 -1.828125q-1.125 -0.6875 -2.640625 -0.6875q-2.40625 0 -4.171875 1.53125q-1.75 1.53125 -1.75 5.828125l0 12.171875l-3.78125 0zm38.34839 0l0 -3.28125q-2.609375 3.78125 -7.078125 3.78125q-1.96875 0 -3.6875 -0.75q-1.71875 -0.765625 -2.546875 -1.90625q-0.828125 -1.140625 -1.15625 -2.796875q-0.234375 -1.109375 -0.234375 -3.53125l0 -13.8125l3.78125 0l0 12.359375q0 2.96875 0.234375 4.0q0.359375 1.484375 1.5 2.34375q1.15625 0.84375 2.859375 0.84375q1.703125 0 3.1875 -0.875q1.5 -0.875 2.109375 -2.375q0.625 -1.5 0.625 -4.34375l0 -11.953125l3.78125 0l0 22.296875l-3.375 0zm17.363983 -3.375l0.53125 3.328125q-1.59375 0.34375 -2.84375 0.34375q-2.0625 0 -3.203125 -0.65625q-1.125 -0.65625 -1.59375 -1.703125q-0.453125 -1.0625 -0.453125 -4.46875l0 -12.828125l-2.78125 0l0 -2.9375l2.78125 0l0 -5.515625l3.75 -2.28125l0 7.796875l3.8125 0l0 2.9375l-3.8125 0l0 13.046875q0 1.609375 0.203125 2.078125q0.203125 0.453125 0.65625 0.734375q0.453125 0.265625 1.28125 0.265625q0.640625 0 1.671875 -0.140625zm18.851257 -3.8125l3.90625 0.484375q-0.921875 3.421875 -3.421875 5.3125q-2.5 1.890625 -6.375 1.890625q-4.890625 0 -7.765625 -3.0q-2.859375 -3.015625 -2.859375 -8.453125q0 -5.640625 2.890625 -8.734375q2.90625 -3.109375 7.515625 -3.109375q4.484375 0 7.3125 3.046875q2.828125 3.03125 2.828125 8.5625q0 0.328125 -0.015625 1.0l-16.625 0q0.203125 3.671875 2.0625 5.625q1.875 1.953125 4.671875 1.953125q2.078125 0 3.546875 -1.078125q1.46875 -1.09375 2.328125 -3.5zm-12.40625 -6.109375l12.453125 0q-0.25 -2.8125 -1.421875 -4.21875q-1.8125 -2.171875 -4.6875 -2.171875q-2.609375 0 -4.390625 1.75q-1.765625 1.734375 -1.953125 4.640625zm19.364014 6.640625l3.734375 -0.59375q0.3125 2.25 1.75 3.453125q1.4375 1.1875 4.015625 1.1875q2.609375 0 3.859375 -1.046875q1.265625 -1.0625 1.265625 -2.5q0 -1.28125 -1.109375 -2.015625q-0.78125 -0.5 -3.859375 -1.28125q-4.15625 -1.046875 -5.765625 -1.8125q-1.609375 -0.765625 -2.4375 -2.109375q-0.828125 -1.359375 -0.828125 -3.0q0 -1.5 0.671875 -2.765625q0.6875 -1.265625 1.875 -2.109375q0.875 -0.65625 2.390625 -1.09375q1.53125 -0.453125 3.265625 -0.453125q2.625 0 4.609375 0.75q1.984375 0.75 2.921875 2.046875q0.953125 1.296875 1.3125 3.453125l-3.6875 0.5q-0.265625 -1.71875 -1.46875 -2.671875q-1.203125 -0.96875 -3.40625 -0.96875q-2.609375 0 -3.71875 0.859375q-1.109375 0.859375 -1.109375 2.015625q0 0.734375 0.453125 1.3125q0.46875 0.609375 1.453125 1.015625q0.5625 0.203125 3.34375 0.96875q4.0 1.0625 5.578125 1.75q1.59375 0.671875 2.5 1.984375q0.90625 1.296875 0.90625 3.234375q0 1.890625 -1.109375 3.5625q-1.09375 1.65625 -3.171875 2.578125q-2.078125 0.90625 -4.703125 0.90625q-4.34375 0 -6.625 -1.796875q-2.28125 -1.8125 -2.90625 -5.359375zm49.148132 6.65625l0 -2.8125q-2.109375 3.3125 -6.234375 3.3125q-2.65625 0 -4.90625 -1.46875q-2.234375 -1.46875 -3.46875 -4.09375q-1.21875 -2.640625 -1.21875 -6.0625q0 -3.34375 1.109375 -6.0625q1.125 -2.71875 3.34375 -4.15625q2.21875 -1.453125 4.96875 -1.453125q2.015625 0 3.59375 0.859375q1.578125 0.84375 2.5625 2.203125l0 -11.046875l3.765625 0l0 30.78125l-3.515625 0zm-11.9375 -11.125q0 4.28125 1.796875 6.40625q1.8125 2.109375 4.265625 2.109375q2.484375 0 4.203125 -2.015625q1.734375 -2.03125 1.734375 -6.1875q0 -4.578125 -1.765625 -6.71875q-1.75 -2.140625 -4.34375 -2.140625q-2.515625 0 -4.203125 2.0625q-1.6875 2.046875 -1.6875 6.484375zm21.223389 -15.3125l0 -4.34375l3.78125 0l0 4.34375l-3.78125 0zm0 26.4375l0 -22.296875l3.78125 0l0 22.296875l-3.78125 0zm7.9456177 -6.65625l3.734375 -0.59375q0.3125 2.25 1.75 3.453125q1.4375 1.1875 4.015625 1.1875q2.609375 0 3.859375 -1.046875q1.265625 -1.0625 1.265625 -2.5q0 -1.28125 -1.109375 -2.015625q-0.78125 -0.5 -3.859375 -1.28125q-4.15625 -1.046875 -5.765625 -1.8125q-1.609375 -0.765625 -2.4375 -2.109375q-0.828125 -1.359375 -0.828125 -3.0q0 -1.5 0.671875 -2.765625q0.6875 -1.265625 1.875 -2.109375q0.875 -0.65625 2.390625 -1.09375q1.53125 -0.453125 3.265625 -0.453125q2.625 0 4.609375 0.75q1.984375 0.75 2.921875 2.046875q0.9531555 1.296875 1.3125305 3.453125l-3.6875305 0.5q-0.265625 -1.71875 -1.46875 -2.671875q-1.203125 -0.96875 -3.40625 -0.96875q-2.609375 0 -3.71875 0.859375q-1.109375 0.859375 -1.109375 2.015625q0 0.734375 0.453125 1.3125q0.46875 0.609375 1.453125 1.015625q0.5625 0.203125 3.34375 0.96875q4.0 1.0625 5.578125 1.75q1.5937805 0.671875 2.5000305 1.984375q0.90625 1.296875 0.90625 3.234375q0 1.890625 -1.109375 3.5625q-1.0937805 1.65625 -3.1719055 2.578125q-2.078125 0.90625 -4.703125 0.90625q-4.34375 0 -6.625 -1.796875q-2.28125 -1.8125 -2.90625 -5.359375zm37.390656 -1.515625l3.703125 0.484375q-0.59375 3.84375 -3.109375 6.015625q-2.515625 2.171875 -6.15625 2.171875q-4.578125 0 -7.359375 -2.984375q-2.78125 -3.0 -2.78125 -8.578125q0 -3.609375 1.1875 -6.3125q1.203125 -2.71875 3.640625 -4.0625q2.453125 -1.359375 5.328125 -1.359375q3.625 0 5.9375 1.84375q2.3125 1.828125 2.96875 5.203125l-3.6875 0.5625q-0.515625 -2.234375 -1.859375 -3.359375q-1.328125 -1.140625 -3.21875 -1.140625q-2.84375 0 -4.640625 2.046875q-1.78125 2.046875 -1.78125 6.46875q0 4.5 1.71875 6.53125q1.71875 2.03125 4.5 2.03125q2.21875 0 3.703125 -1.359375q1.5 -1.359375 1.90625 -4.203125zm21.390625 8.171875l0 -3.28125q-2.609375 3.78125 -7.078125 3.78125q-1.96875 0 -3.6875 -0.75q-1.71875 -0.765625 -2.546875 -1.90625q-0.828125 -1.140625 -1.15625 -2.796875q-0.234375 -1.109375 -0.234375 -3.53125l0 -13.8125l3.78125 0l0 12.359375q0 2.96875 0.234375 4.0q0.359375 1.484375 1.5 2.34375q1.15625 0.84375 2.859375 0.84375q1.703125 0 3.1875 -0.875q1.5 -0.875 2.109375 -2.375q0.625 -1.5 0.625 -4.34375l0 -11.953125l3.78125 0l0 22.296875l-3.375 0zm7.5983887 -6.65625l3.734375 -0.59375q0.3125 2.25 1.75 3.453125q1.4375 1.1875 4.015625 1.1875q2.609375 0 3.859375 -1.046875q1.265625 -1.0625 1.265625 -2.5q0 -1.28125 -1.109375 -2.015625q-0.78125 -0.5 -3.859375 -1.28125q-4.15625 -1.046875 -5.765625 -1.8125q-1.609375 -0.765625 -2.4375 -2.109375q-0.828125 -1.359375 -0.828125 -3.0q0 -1.5 0.671875 -2.765625q0.6875 -1.265625 1.875 -2.109375q0.875 -0.65625 2.390625 -1.09375q1.53125 -0.453125 3.265625 -0.453125q2.625 0 4.609375 0.75q1.984375 0.75 2.921875 2.046875q0.953125 1.296875 1.3125 3.453125l-3.6875 0.5q-0.265625 -1.71875 -1.46875 -2.671875q-1.203125 -0.96875 -3.40625 -0.96875q-2.609375 0 -3.71875 0.859375q-1.109375 0.859375 -1.109375 2.015625q0 0.734375 0.453125 1.3125q0.46875 0.609375 1.453125 1.015625q0.5625 0.203125 3.34375 0.96875q4.0 1.0625 5.578125 1.75q1.59375 0.671875 2.5 1.984375q0.90625 1.296875 0.90625 3.234375q0 1.890625 -1.109375 3.5625q-1.09375 1.65625 -3.171875 2.578125q-2.078125 0.90625 -4.703125 0.90625q-4.34375 0 -6.625 -1.796875q-2.28125 -1.8125 -2.90625 -5.359375zm21.328125 0l3.734375 -0.59375q0.3125 2.25 1.75 3.453125q1.4375 1.1875 4.015625 1.1875q2.609375 0 3.859375 -1.046875q1.265625 -1.0625 1.265625 -2.5q0 -1.28125 -1.109375 -2.015625q-0.78125 -0.5 -3.859375 -1.28125q-4.15625 -1.046875 -5.765625 -1.8125q-1.609375 -0.765625 -2.4375 -2.109375q-0.828125 -1.359375 -0.828125 -3.0q0 -1.5 0.671875 -2.765625q0.6875 -1.265625 1.875 -2.109375q0.875 -0.65625 2.390625 -1.09375q1.53125 -0.453125 3.265625 -0.453125q2.625 0 4.609375 0.75q1.984375 0.75 2.921875 2.046875q0.953125 1.296875 1.3125 3.453125l-3.6875 0.5q-0.265625 -1.71875 -1.46875 -2.671875q-1.203125 -0.96875 -3.40625 -0.96875q-2.609375 0 -3.71875 0.859375q-1.109375 0.859375 -1.109375 2.015625q0 0.734375 0.453125 1.3125q0.46875 0.609375 1.453125 1.015625q0.5625 0.203125 3.34375 0.96875q4.0 1.0625 5.578125 1.75q1.59375 0.671875 2.5 1.984375q0.90625 1.296875 0.90625 3.234375q0 1.890625 -1.109375 3.5625q-1.09375 1.65625 -3.171875 2.578125q-2.078125 0.90625 -4.703125 0.90625q-4.34375 0 -6.625 -1.796875q-2.28125 -1.8125 -2.90625 -5.359375zm22.859375 -19.78125l0 -4.34375l3.78125 0l0 4.34375l-3.78125 0zm0 26.4375l0 -22.296875l3.78125 0l0 22.296875l-3.78125 0zm9.445557 0l0 -22.296875l3.40625 0l0 3.171875q2.453125 -3.671875 7.09375 -3.671875q2.015625 0 3.703125 0.71875q1.703125 0.71875 2.53125 1.90625q0.84375 1.171875 1.1875 2.78125q0.203125 1.0625 0.203125 3.6875l0 13.703125l-3.78125 0l0 -13.5625q0 -2.3125 -0.4375 -3.453125q-0.4375 -1.140625 -1.5625 -1.828125q-1.125 -0.6875 -2.640625 -0.6875q-2.40625 0 -4.171875 1.53125q-1.75 1.53125 -1.75 5.828125l0 12.171875l-3.78125 0zm23.035889 1.84375l3.671875 0.546875q0.234375 1.703125 1.28125 2.484375q1.40625 1.046875 3.84375 1.046875q2.625 0 4.046875 -1.046875q1.4375 -1.046875 1.9375 -2.9375q0.296875 -1.15625 0.28125 -4.859375q-2.484375 2.921875 -6.1875 2.921875q-4.59375 0 -7.109375 -3.3125q-2.515625 -3.328125 -2.515625 -7.96875q0 -3.1875 1.15625 -5.875q1.15625 -2.703125 3.34375 -4.171875q2.1875 -1.46875 5.15625 -1.46875q3.9375 0 6.5 3.1875l0 -2.6875l3.484375 0l0 19.265625q0 5.21875 -1.0625 7.390625q-1.046875 2.171875 -3.359375 3.421875q-2.296875 1.265625 -5.65625 1.265625q-3.984375 0 -6.4375 -1.796875q-2.453125 -1.796875 -2.375 -5.40625zm3.125 -13.390625q0 4.390625 1.734375 6.40625q1.75 2.015625 4.375 2.015625q2.609375 0 4.375 -2.0q1.765625 -2.015625 1.765625 -6.296875q0 -4.09375 -1.828125 -6.171875q-1.8125 -2.078125 -4.375 -2.078125q-2.515625 0 -4.28125 2.046875q-1.765625 2.046875 -1.765625 6.078125zm47.699707 8.796875q-2.109375 1.78125 -4.046875 2.515625q-1.9375 0.734375 -4.171875 0.734375q-3.671875 0 -5.65625 -1.796875q-1.96875 -1.796875 -1.96875 -4.578125q0 -1.640625 0.75 -2.984375q0.75 -1.359375 1.953125 -2.171875q1.203125 -0.828125 2.71875 -1.25q1.109375 -0.296875 3.359375 -0.5625q4.578125 -0.546875 6.734375 -1.3125q0.03125 -0.765625 0.03125 -0.984375q0 -2.3125 -1.078125 -3.25q-1.4375 -1.28125 -4.296875 -1.28125q-2.671875 0 -3.9375 0.9375q-1.265625 0.921875 -1.875 3.296875l-3.703125 -0.5q0.5 -2.375 1.65625 -3.828125q1.15625 -1.46875 3.34375 -2.25q2.1875 -0.78125 5.0625 -0.78125q2.859375 0 4.640625 0.671875q1.78125 0.671875 2.609375 1.6875q0.84375 1.015625 1.1875 2.5625q0.1875 0.96875 0.1875 3.5l0 5.03125q0 5.265625 0.234375 6.671875q0.25 1.390625 0.96875 2.671875l-3.953125 0q-0.59375 -1.171875 -0.75 -2.75zm-0.328125 -8.4375q-2.046875 0.84375 -6.171875 1.421875q-2.328125 0.34375 -3.296875 0.765625q-0.953125 0.40625 -1.484375 1.21875q-0.53125 0.8125 -0.53125 1.796875q0 1.515625 1.140625 2.53125q1.15625 1.0 3.359375 1.0q2.1875 0 3.875 -0.953125q1.703125 -0.96875 2.515625 -2.625q0.59375 -1.28125 0.59375 -3.78125l0 -1.375zm9.489014 19.734375l0 -30.84375l3.453125 0l0 2.890625q1.21875 -1.6875 2.75 -2.53125q1.53125 -0.859375 3.71875 -0.859375q2.84375 0 5.03125 1.46875q2.1875 1.46875 3.296875 4.140625q1.109375 2.671875 1.109375 5.875q0 3.421875 -1.234375 6.15625q-1.21875 2.734375 -3.5625 4.203125q-2.34375 1.453125 -4.921875 1.453125q-1.890625 0 -3.390625 -0.796875q-1.5 -0.796875 -2.46875 -2.015625l0 10.859375l-3.78125 0zm3.421875 -19.5625q0 4.296875 1.75 6.359375q1.75 2.046875 4.21875 2.046875q2.515625 0 4.3125 -2.125q1.796875 -2.125 1.796875 -6.609375q0 -4.25 -1.75 -6.375q-1.75 -2.125 -4.1875 -2.125q-2.421875 0 -4.28125 2.265625q-1.859375 2.25 -1.859375 6.5625zm20.301514 19.5625l0 -30.84375l3.453125 0l0 2.890625q1.21875 -1.6875 2.75 -2.53125q1.53125 -0.859375 3.71875 -0.859375q2.84375 0 5.03125 1.46875q2.1875 1.46875 3.296875 4.140625q1.109375 2.671875 1.109375 5.875q0 3.421875 -1.234375 6.15625q-1.21875 2.734375 -3.5625 4.203125q-2.34375 1.453125 -4.921875 1.453125q-1.890625 0 -3.390625 -0.796875q-1.5 -0.796875 -2.46875 -2.015625l0 10.859375l-3.78125 0zm3.421875 -19.5625q0 4.296875 1.75 6.359375q1.75 2.046875 4.21875 2.046875q2.515625 0 4.3125 -2.125q1.796875 -2.125 1.796875 -6.609375q0 -4.25 -1.75 -6.375q-1.75 -2.125 -4.1875 -2.125q-2.421875 0 -4.28125 2.265625q-1.859375 2.25 -1.859375 6.5625zm32.18396 -15.421875l0 -4.34375l3.78125 0l0 4.34375l-3.78125 0zm0 26.4375l0 -22.296875l3.78125 0l0 22.296875l-3.78125 0zm23.914429 0l0 -2.8125q-2.109375 3.3125 -6.234375 3.3125q-2.65625 0 -4.90625 -1.46875q-2.234375 -1.46875 -3.46875 -4.09375q-1.21875 -2.640625 -1.21875 -6.0625q0 -3.34375 1.109375 -6.0625q1.125 -2.71875 3.34375 -4.15625q2.21875 -1.453125 4.96875 -1.453125q2.015625 0 3.59375 0.859375q1.578125 0.84375 2.5625 2.203125l0 -11.046875l3.765625 0l0 30.78125l-3.515625 0zm-11.9375 -11.125q0 4.28125 1.796875 6.40625q1.8125 2.109375 4.265625 2.109375q2.484375 0 4.203125 -2.015625q1.734375 -2.03125 1.734375 -6.1875q0 -4.578125 -1.765625 -6.71875q-1.75 -2.140625 -4.34375 -2.140625q-2.515625 0 -4.203125 2.0625q-1.6875 2.046875 -1.6875 6.484375zm36.457764 3.9375l3.90625 0.484375q-0.921875 3.421875 -3.421875 5.3125q-2.5 1.890625 -6.375 1.890625q-4.890625 0 -7.765625 -3.0q-2.859375 -3.015625 -2.859375 -8.453125q0 -5.640625 2.890625 -8.734375q2.90625 -3.109375 7.515625 -3.109375q4.484375 0 7.3125 3.046875q2.828125 3.03125 2.828125 8.5625q0 0.328125 -0.015625 1.0l-16.625 0q0.203125 3.671875 2.0625 5.625q1.875 1.953125 4.671875 1.953125q2.078125 0 3.546875 -1.078125q1.46875 -1.09375 2.328125 -3.5zm-12.40625 -6.109375l12.453125 0q-0.25 -2.8125 -1.421875 -4.21875q-1.8125 -2.171875 -4.6875 -2.171875q-2.609375 0 -4.390625 1.75q-1.765625 1.734375 -1.953125 4.640625zm35.426514 10.546875q-2.109375 1.78125 -4.046875 2.515625q-1.9375 0.734375 -4.171875 0.734375q-3.671875 0 -5.65625 -1.796875q-1.96875 -1.796875 -1.96875 -4.578125q0 -1.640625 0.75 -2.984375q0.75 -1.359375 1.953125 -2.171875q1.203125 -0.828125 2.71875 -1.25q1.109375 -0.296875 3.359375 -0.5625q4.578125 -0.546875 6.734375 -1.3125q0.03125 -0.765625 0.03125 -0.984375q0 -2.3125 -1.078125 -3.25q-1.4375 -1.28125 -4.296875 -1.28125q-2.671875 0 -3.9375 0.9375q-1.265625 0.921875 -1.875 3.296875l-3.703125 -0.5q0.5 -2.375 1.65625 -3.828125q1.15625 -1.46875 3.34375 -2.25q2.1875 -0.78125 5.0625 -0.78125q2.859375 0 4.640625 0.671875q1.78125 0.671875 2.609375 1.6875q0.84375 1.015625 1.1875 2.5625q0.1875 0.96875 0.1875 3.5l0 5.03125q0 5.265625 0.234375 6.671875q0.25 1.390625 0.96875 2.671875l-3.953125 0q-0.59375 -1.171875 -0.75 -2.75zm-0.328125 -8.4375q-2.046875 0.84375 -6.171875 1.421875q-2.328125 0.34375 -3.296875 0.765625q-0.953125 0.40625 -1.484375 1.21875q-0.53125 0.8125 -0.53125 1.796875q0 1.515625 1.140625 2.53125q1.15625 1.0 3.359375 1.0q2.1875 0 3.875 -0.953125q1.703125 -0.96875 2.515625 -2.625q0.59375 -1.28125 0.59375 -3.78125l0 -1.375zm7.9890137 4.53125l3.734375 -0.59375q0.3125 2.25 1.75 3.453125q1.4375 1.1875 4.015625 1.1875q2.609375 0 3.859375 -1.046875q1.265625 -1.0625 1.265625 -2.5q0 -1.28125 -1.109375 -2.015625q-0.78125 -0.5 -3.859375 -1.28125q-4.15625 -1.046875 -5.765625 -1.8125q-1.609375 -0.765625 -2.4375 -2.109375q-0.828125 -1.359375 -0.828125 -3.0q0 -1.5 0.671875 -2.765625q0.6875 -1.265625 1.875 -2.109375q0.875 -0.65625 2.390625 -1.09375q1.53125 -0.453125 3.265625 -0.453125q2.625 0 4.609375 0.75q1.984375 0.75 2.921875 2.046875q0.953125 1.296875 1.3125 3.453125l-3.6875 0.5q-0.265625 -1.71875 -1.46875 -2.671875q-1.203125 -0.96875 -3.40625 -0.96875q-2.609375 0 -3.71875 0.859375q-1.109375 0.859375 -1.109375 2.015625q0 0.734375 0.453125 1.3125q0.46875 0.609375 1.453125 1.015625q0.5625 0.203125 3.34375 0.96875q4.0 1.0625 5.578125 1.75q1.59375 0.671875 2.5 1.984375q0.90625 1.296875 0.90625 3.234375q0 1.890625 -1.109375 3.5625q-1.09375 1.65625 -3.171875 2.578125q-2.078125 0.90625 -4.703125 0.90625q-4.34375 0 -6.625 -1.796875q-2.28125 -1.8125 -2.90625 -5.359375z" fill-rule="nonzero"></path><path fill="#f3f3f3" d="m61.44098 263.6004l-3.78125 0l0 -24.07811q-1.359375 1.296875 -3.578125 2.609375q-2.203125 1.296875 -3.96875 1.9375l0 -3.65625q3.171875 -1.484375 5.53125 -3.59375q2.375 -2.125 3.359375 -4.125l2.4375 0l0 30.906235zm11.613998 0l0 -4.296875l4.296875 0l0 4.296875l-4.296875 0z" fill-rule="nonzero"></path><path fill="#f3f3f3" d="m111.953125 263.6004l-6.828125 -22.29686l3.90625 0l3.546875 12.875l1.328125 4.7812347q0.078125 -0.359375 1.15625 -4.5937347l3.546875 -13.0625l3.875 0l3.34375 12.9375l1.109375 4.2499847l1.28125 -4.2968597l3.828125 -12.890625l3.671875 0l-6.96875 22.29686l-3.921875 0l-3.5625 -13.35936l-0.859375 -3.796875l-4.515625 17.156235l-3.9375 0zm26.648727 0l0 -22.29686l3.390625 0l0 3.375q1.3125 -2.375 2.40625 -3.125q1.109375 -0.75 2.421875 -0.75q1.921875 0 3.890625 1.21875l-1.296875 3.5q-1.390625 -0.8125 -2.78125 -0.8125q-1.234375 0 -2.21875 0.75q-0.984375 0.734375 -1.40625 2.0625q-0.625 2.015625 -0.625 4.40625l0 11.67186l-3.78125 0zm14.2673645 -26.437485l0 -4.34375l3.78125 0l0 4.34375l-3.78125 0zm0 26.437485l0 -22.29686l3.78125 0l0 22.29686l-3.78125 0zm17.711227 -3.375l0.53125 3.328125q-1.59375 0.34375 -2.84375 0.34375q-2.0625 0 -3.203125 -0.65625q-1.125 -0.65625 -1.59375 -1.703125q-0.453125 -1.0625 -0.453125 -4.46875l0 -12.82811l-2.78125 0l0 -2.9375l2.78125 0l0 -5.515625l3.75 -2.28125l0 7.796875l3.8125 0l0 2.9375l-3.8125 0l0 13.04686q0 1.609375 0.203125 2.078125q0.203125 0.453125 0.65625 0.734375q0.453125 0.265625 1.28125 0.265625q0.640625 0 1.671875 -0.140625zm18.851273 -3.8125l3.90625 0.484375q-0.921875 3.421875 -3.421875 5.3125q-2.5 1.890625 -6.375 1.890625q-4.890625 0 -7.765625 -3.0q-2.859375 -3.015625 -2.859375 -8.45311q0 -5.640625 2.890625 -8.734375q2.90625 -3.109375 7.515625 -3.109375q4.484375 0 7.3125 3.046875q2.828125 3.03125 2.828125 8.5625q0 0.328125 -0.015625 1.0l-16.625 0q0.203125 3.6718597 2.0625 5.6249847q1.875 1.953125 4.671875 1.953125q2.078125 0 3.546875 -1.078125q1.46875 -1.09375 2.328125 -3.5zm-12.40625 -6.1093597l12.453125 0q-0.25 -2.8125 -1.421875 -4.21875q-1.8125 -2.171875 -4.6875 -2.171875q-2.609375 0 -4.390625 1.75q-1.765625 1.734375 -1.953125 4.640625zm32.55902 21.89061l-0.421875 -3.546875q1.234375 0.328125 2.15625 0.328125q1.265625 0 2.015625 -0.421875q0.765625 -0.421875 1.234375 -1.171875q0.359375 -0.5625 1.15625 -2.8125q0.109375 -0.3125 0.34375 -0.921875l-8.46875 -22.343735l4.078125 0l4.640625 12.90625q0.90625 2.4687347 1.609375 5.1718597q0.65625 -2.609375 1.5625 -5.0781097l4.765625 -13.0l3.78125 0l-8.484375 22.67186q-1.359375 3.671875 -2.125 5.0625q-1.0 1.875 -2.3125 2.734375q-1.296875 0.875 -3.09375 0.875q-1.09375 0 -2.4375 -0.453125zm20.078125 -19.749985q0 -6.1875 3.453125 -9.171875q2.875 -2.46875 7.015625 -2.46875q4.59375 0 7.5 3.015625q2.921875 3.0 2.921875 8.3125q0 4.3124847 -1.296875 6.7812347q-1.28125 2.46875 -3.75 3.828125q-2.46875 1.359375 -5.375 1.359375q-4.6875 0 -7.578125 -3.0q-2.890625 -3.0 -2.890625 -8.656235zm3.890625 0q0 4.2968597 1.859375 6.4218597q1.875 2.125 4.71875 2.125q2.8125 0 4.671875 -2.140625q1.875 -2.140625 1.875 -6.5312347q0 -4.125 -1.890625 -6.25q-1.875 -2.140625 -4.65625 -2.140625q-2.84375 0 -4.71875 2.125q-1.859375 2.109375 -1.859375 6.390625zm35.864 11.156235l0 -3.28125q-2.609375 3.78125 -7.078125 3.78125q-1.96875 0 -3.6875 -0.75q-1.71875 -0.765625 -2.546875 -1.90625q-0.828125 -1.140625 -1.15625 -2.796875q-0.234375 -1.109375 -0.234375 -3.5312347l0 -13.8125l3.78125 0l0 12.359375q0 2.9687347 0.234375 3.9999847q0.359375 1.484375 1.5 2.34375q1.15625 0.84375 2.859375 0.84375q1.703125 0 3.1875 -0.875q1.5 -0.875 2.109375 -2.375q0.625 -1.5 0.625 -4.3437347l0 -11.953125l3.78125 0l0 22.29686l-3.375 0zm9.067139 0l0 -22.29686l3.390625 0l0 3.375q1.3125 -2.375 2.40625 -3.125q1.109375 -0.75 2.421875 -0.75q1.921875 0 3.890625 1.21875l-1.296875 3.5q-1.390625 -0.8125 -2.78125 -0.8125q-1.234375 0 -2.21875 0.75q-0.984375 0.734375 -1.40625 2.0625q-0.625 2.015625 -0.625 4.40625l0 11.67186l-3.78125 0zm26.118622 -26.437485l0 -4.34375l3.78125 0l0 4.34375l-3.78125 0zm0 26.437485l0 -22.29686l3.78125 0l0 22.29686l-3.78125 0zm23.914337 0l0 -2.8125q-2.109375 3.3125 -6.234375 3.3125q-2.65625 0 -4.90625 -1.46875q-2.234375 -1.46875 -3.46875 -4.09375q-1.21875 -2.6406097 -1.21875 -6.0624847q0 -3.34375 1.109375 -6.0625q1.125 -2.71875 3.34375 -4.15625q2.21875 -1.453125 4.96875 -1.453125q2.015625 0 3.59375 0.859375q1.578125 0.84375 2.5625 2.203125l0 -11.046875l3.765625 0l0 30.781235l-3.515625 0zm-11.9375 -11.124985q0 4.2812347 1.796875 6.4062347q1.8125 2.109375 4.265625 2.109375q2.484375 0 4.203125 -2.015625q1.734375 -2.03125 1.734375 -6.1874847q0 -4.578125 -1.765625 -6.71875q-1.75 -2.140625 -4.34375 -2.140625q-2.515625 0 -4.203125 2.0625q-1.6875 2.046875 -1.6875 6.484375zm36.457764 3.9374847l3.90625 0.484375q-0.921875 3.421875 -3.421875 5.3125q-2.5 1.890625 -6.375 1.890625q-4.890625 0 -7.765625 -3.0q-2.859375 -3.015625 -2.859375 -8.45311q0 -5.640625 2.890625 -8.734375q2.90625 -3.109375 7.515625 -3.109375q4.484375 0 7.3125 3.046875q2.828125 3.03125 2.828125 8.5625q0 0.328125 -0.015625 1.0l-16.625 0q0.203125 3.6718597 2.0625 5.6249847q1.875 1.953125 4.671875 1.953125q2.078125 0 3.546875 -1.078125q1.46875 -1.09375 2.328125 -3.5zm-12.40625 -6.1093597l12.453125 0q-0.25 -2.8125 -1.421875 -4.21875q-1.8125 -2.171875 -4.6875 -2.171875q-2.609375 0 -4.390625 1.75q-1.765625 1.734375 -1.953125 4.640625zm35.426514 10.54686q-2.109375 1.78125 -4.046875 2.515625q-1.9375 0.734375 -4.171875 0.734375q-3.671875 0 -5.65625 -1.796875q-1.96875 -1.796875 -1.96875 -4.578125q0 -1.640625 0.75 -2.9843597q0.75 -1.359375 1.953125 -2.171875q1.203125 -0.828125 2.71875 -1.25q1.109375 -0.296875 3.359375 -0.5625q4.578125 -0.546875 6.734375 -1.3125q0.03125 -0.765625 0.03125 -0.984375q0 -2.3125 -1.078125 -3.25q-1.4375 -1.28125 -4.296875 -1.28125q-2.671875 0 -3.9375 0.9375q-1.265625 0.921875 -1.875 3.296875l-3.703125 -0.5q0.5 -2.375 1.65625 -3.828125q1.15625 -1.46875 3.34375 -2.25q2.1875 -0.78125 5.0625 -0.78125q2.859375 0 4.640625 0.671875q1.78125 0.671875 2.609375 1.6875q0.84375 1.015625 1.1875 2.5625q0.1875 0.96875 0.1875 3.5l0 5.03125q0 5.2656097 0.234375 6.6718597q0.25 1.390625 0.96875 2.671875l-3.953125 0q-0.59375 -1.171875 -0.75 -2.75zm-0.328125 -8.437485q-2.046875 0.84375 -6.171875 1.421875q-2.328125 0.34375 -3.296875 0.765625q-0.953125 0.40625 -1.484375 1.21875q-0.53125 0.81248474 -0.53125 1.7968597q0 1.515625 1.140625 2.53125q1.15625 1.0 3.359375 1.0q2.1875 0 3.875 -0.953125q1.703125 -0.96875 2.515625 -2.625q0.59375 -1.28125 0.59375 -3.7812347l0 -1.375zm7.988983 4.5312347l3.734375 -0.59375q0.3125 2.25 1.75 3.453125q1.4375 1.1875 4.015625 1.1875q2.609375 0 3.859375 -1.046875q1.265625 -1.0625 1.265625 -2.5q0 -1.28125 -1.109375 -2.0156097q-0.78125 -0.5 -3.859375 -1.28125q-4.15625 -1.046875 -5.765625 -1.8125q-1.609375 -0.765625 -2.4375 -2.109375q-0.828125 -1.359375 -0.828125 -3.0q0 -1.5 0.671875 -2.765625q0.6875 -1.265625 1.875 -2.109375q0.875 -0.65625 2.390625 -1.09375q1.53125 -0.453125 3.265625 -0.453125q2.625 0 4.609375 0.75q1.984375 0.75 2.921875 2.046875q0.953125 1.296875 1.3125 3.453125l-3.6875 0.5q-0.265625 -1.71875 -1.46875 -2.671875q-1.203125 -0.96875 -3.40625 -0.96875q-2.609375 0 -3.71875 0.859375q-1.109375 0.859375 -1.109375 2.015625q0 0.734375 0.453125 1.3125q0.46875 0.609375 1.453125 1.015625q0.5625 0.203125 3.34375 0.96875q4.0 1.0625 5.578125 1.75q1.59375 0.671875 2.5 1.984375q0.90625 1.296875 0.90625 3.2343597q0 1.890625 -1.109375 3.5625q-1.09375 1.65625 -3.171875 2.578125q-2.078125 0.90625 -4.703125 0.90625q-4.34375 0 -6.625 -1.796875q-2.28125 -1.8125 -2.90625 -5.359375zm49.148163 6.65625l0 -2.8125q-2.109375 3.3125 -6.234375 3.3125q-2.65625 0 -4.90625 -1.46875q-2.234375 -1.46875 -3.46875 -4.09375q-1.21875 -2.6406097 -1.21875 -6.0624847q0 -3.34375 1.109375 -6.0625q1.125 -2.71875 3.34375 -4.15625q2.21875 -1.453125 4.96875 -1.453125q2.015625 0 3.59375 0.859375q1.578125 0.84375 2.5625 2.203125l0 -11.046875l3.765625 0l0 30.781235l-3.515625 0zm-11.9375 -11.124985q0 4.2812347 1.796875 6.4062347q1.8125 2.109375 4.265625 2.109375q2.484375 0 4.203125 -2.015625q1.734375 -2.03125 1.734375 -6.1874847q0 -4.578125 -1.765625 -6.71875q-1.75 -2.140625 -4.34375 -2.140625q-2.515625 0 -4.203125 2.0625q-1.6875 2.046875 -1.6875 6.484375zm19.785889 -0.03125q0 -6.1875 3.453125 -9.171875q2.875 -2.46875 7.015625 -2.46875q4.59375 0 7.5 3.015625q2.921875 3.0 2.921875 8.3125q0 4.3124847 -1.296875 6.7812347q-1.28125 2.46875 -3.75 3.828125q-2.46875 1.359375 -5.375 1.359375q-4.6875 0 -7.578125 -3.0q-2.890625 -3.0 -2.890625 -8.656235zm3.890625 0q0 4.2968597 1.859375 6.4218597q1.875 2.125 4.71875 2.125q2.8125 0 4.671875 -2.140625q1.875 -2.140625 1.875 -6.5312347q0 -4.125 -1.890625 -6.25q-1.875 -2.140625 -4.65625 -2.140625q-2.84375 0 -4.71875 2.125q-1.859375 2.109375 -1.859375 6.390625zm25.364014 11.156235l-6.828125 -22.29686l3.90625 0l3.546875 12.875l1.328125 4.7812347q0.078125 -0.359375 1.15625 -4.5937347l3.546875 -13.0625l3.875 0l3.34375 12.9375l1.109375 4.2499847l1.28125 -4.2968597l3.828125 -12.890625l3.671875 0l-6.96875 22.29686l-3.921875 0l-3.5625 -13.35936l-0.859375 -3.796875l-4.515625 17.156235l-3.9375 0zm26.679993 0l0 -22.29686l3.40625 0l0 3.171875q2.453125 -3.671875 7.09375 -3.671875q2.015625 0 3.703125 0.71875q1.703125 0.71875 2.53125 1.90625q0.84375 1.171875 1.1875 2.78125q0.203125 1.0625 0.203125 3.6875l0 13.70311l-3.78125 0l0 -13.562485q0 -2.3125 -0.4375 -3.453125q-0.4375 -1.140625 -1.5625 -1.828125q-1.125 -0.6875 -2.640625 -0.6875q-2.40625 0 -4.171875 1.53125q-1.75 1.53125 -1.75 5.828125l0 12.17186l-3.78125 0z" fill-rule="nonzero"></path><path fill="#f3f3f3" d="m67.06598 310.9754l0 3.625l-20.34375 0q-0.03125 -1.359375 0.453125 -2.625q0.765625 -2.078125 2.46875 -4.09375q1.71875 -2.015625 4.953125 -4.65625q5.015625 -4.125 6.78125 -6.515625q1.765625 -2.40625 1.765625 -4.546875q0 -2.25 -1.609375 -3.796875q-1.59375 -1.546875 -4.1875 -1.546875q-2.71875 0 -4.359375 1.640625q-1.640625 1.640625 -1.65625 4.53125l-3.890625 -0.390625q0.40625 -4.34375 3.0 -6.625q2.609375 -2.28125 7.0 -2.28125q4.421875 0 7.0 2.453125q2.59375 2.453125 2.59375 6.09375q0 1.84375 -0.765625 3.640625q-0.75 1.78125 -2.5 3.75q-1.75 1.96875 -5.828125 5.421875q-3.40625 2.84375 -4.375 3.875q-0.953125 1.015625 -1.59375 2.046875l15.09375 0zm5.9889984 3.625l0 -4.296875l4.296875 0l0 4.296875l-4.296875 0z" fill-rule="nonzero"></path><path fill="#f3f3f3" d="m108.734375 314.6004l0 -19.359375l-3.328125 0l0 -2.9375l3.328125 0l0 -2.375q0 -2.25 0.40625 -3.34375q0.546875 -1.46875 1.921875 -2.375q1.375 -0.921875 3.84375 -0.921875q1.59375 0 3.53125 0.390625l-0.5625 3.296875q-1.1875 -0.21875 -2.234375 -0.21875q-1.71875 0 -2.4375 0.734375q-0.703125 0.734375 -0.703125 2.75l0 2.0625l4.34375 0l0 2.9375l-4.34375 0l0 19.359375l-3.765625 0zm10.976273 -26.4375l0 -4.34375l3.78125 0l0 4.34375l-3.78125 0zm0 26.4375l0 -22.296875l3.78125 0l0 22.296875l-3.78125 0zm9.445602 0l0 -22.296875l3.40625 0l0 3.171875q2.453125 -3.671875 7.09375 -3.671875q2.015625 0 3.703125 0.71875q1.703125 0.71875 2.53125 1.90625q0.84375 1.171875 1.1875 2.78125q0.203125 1.0625 0.203125 3.6875l0 13.703125l-3.78125 0l0 -13.5625q0 -2.3125 -0.4375 -3.453125q-0.4375 -1.140625 -1.5625 -1.828125q-1.125 -0.6875 -2.640625 -0.6875q-2.40625 0 -4.171875 1.53125q-1.75 1.53125 -1.75 5.828125l0 12.171875l-3.78125 0zm38.192123 0l0 -2.8125q-2.109375 3.3125 -6.234375 3.3125q-2.65625 0 -4.90625 -1.46875q-2.234375 -1.46875 -3.46875 -4.09375q-1.21875 -2.640625 -1.21875 -6.0625q0 -3.34375 1.109375 -6.0625q1.125 -2.71875 3.34375 -4.15625q2.21875 -1.453125 4.96875 -1.453125q2.015625 0 3.59375 0.859375q1.578125 0.84375 2.5625 2.203125l0 -11.046875l3.765625 0l0 30.78125l-3.515625 0zm-11.9375 -11.125q0 4.28125 1.796875 6.40625q1.8125 2.109375 4.265625 2.109375q2.484375 0 4.203125 -2.015625q1.734375 -2.03125 1.734375 -6.1875q0 -4.578125 -1.765625 -6.71875q-1.75 -2.140625 -4.34375 -2.140625q-2.515625 0 -4.203125 2.0625q-1.6875 2.046875 -1.6875 6.484375zm41.30902 7.75l0.53125 3.328125q-1.59375 0.34375 -2.84375 0.34375q-2.0625 0 -3.203125 -0.65625q-1.125 -0.65625 -1.59375 -1.703125q-0.453125 -1.0625 -0.453125 -4.46875l0 -12.828125l-2.78125 0l0 -2.9375l2.78125 0l0 -5.515625l3.75 -2.28125l0 7.796875l3.8125 0l0 2.9375l-3.8125 0l0 13.046875q0 1.609375 0.203125 2.078125q0.203125 0.453125 0.65625 0.734375q0.453125 0.265625 1.28125 0.265625q0.640625 0 1.671875 -0.140625zm3.5856476 3.375l0 -30.78125l3.78125 0l0 11.046875q2.65625 -3.0625 6.6875 -3.0625q2.46875 0 4.296875 0.984375q1.828125 0.96875 2.609375 2.6875q0.796875 1.71875 0.796875 5.0l0 14.125l-3.78125 0l0 -14.125q0 -2.84375 -1.234375 -4.125q-1.21875 -1.296875 -3.46875 -1.296875q-1.6875 0 -3.171875 0.875q-1.46875 0.859375 -2.109375 2.359375q-0.625 1.484375 -0.625 4.109375l0 12.203125l-3.78125 0zm38.989 -7.1875l3.90625 0.484375q-0.921875 3.421875 -3.421875 5.3125q-2.5 1.890625 -6.375 1.890625q-4.890625 0 -7.765625 -3.0q-2.859375 -3.015625 -2.859375 -8.453125q0 -5.640625 2.890625 -8.734375q2.90625 -3.109375 7.515625 -3.109375q4.484375 0 7.3125 3.046875q2.828125 3.03125 2.828125 8.5625q0 0.328125 -0.015625 1.0l-16.625 0q0.203125 3.671875 2.0625 5.625q1.875 1.953125 4.671875 1.953125q2.078125 0 3.546875 -1.078125q1.46875 -1.09375 2.328125 -3.5zm-12.40625 -6.109375l12.453125 0q-0.25 -2.8125 -1.421875 -4.21875q-1.8125 -2.171875 -4.6875 -2.171875q-2.609375 0 -4.390625 1.75q-1.765625 1.734375 -1.953125 4.640625zm29.824661 13.296875l11.828125 -30.78125l4.375 0l12.609375 30.78125l-4.640625 0l-3.59375 -9.328125l-12.875 0l-3.375 9.328125l-4.328125 0zm8.875 -12.640625l10.4375 0l-3.203125 -8.53125q-1.46875 -3.875 -2.1875 -6.375q-0.59375 2.953125 -1.65625 5.875l-3.390625 9.03125zm22.951355 12.640625l0 -30.78125l11.609375 0q3.078125 0 4.6875 0.296875q2.265625 0.375 3.796875 1.4375q1.53125 1.0625 2.46875 2.96875q0.9375 1.90625 0.9375 4.203125q0 3.921875 -2.5 6.640625q-2.5 2.71875 -9.03125 2.71875l-7.890625 0l0 12.515625l-4.078125 0zm4.078125 -16.140625l7.953125 0q3.953125 0 5.609375 -1.46875q1.65625 -1.46875 1.65625 -4.140625q0 -1.9375 -0.984375 -3.3125q-0.96875 -1.375 -2.5625 -1.8125q-1.03125 -0.265625 -3.796875 -0.265625l-7.875 0l0 11.0zm25.076416 16.140625l0 -30.78125l4.0625 0l0 30.78125l-4.0625 0zm17.898132 9.046875q-3.140625 -3.9375 -5.296875 -9.234375q-2.15625 -5.296875 -2.15625 -10.96875q0 -4.984375 1.609375 -9.5625q1.890625 -5.3125 5.84375 -10.59375l2.703125 0q-2.546875 4.375 -3.359375 6.25q-1.28125 2.890625 -2.015625 6.046875q-0.90625 3.921875 -0.90625 7.890625q0 10.09375 6.28125 20.171875l-2.703125 0zm5.4704895 -15.703125l3.734375 -0.59375q0.3125 2.25 1.75 3.453125q1.4375 1.1875 4.015625 1.1875q2.609375 0 3.859375 -1.046875q1.265625 -1.0625 1.265625 -2.5q0 -1.28125 -1.109375 -2.015625q-0.78125 -0.5 -3.859375 -1.28125q-4.15625 -1.046875 -5.765625 -1.8125q-1.609375 -0.765625 -2.4375 -2.109375q-0.828125 -1.359375 -0.828125 -3.0q0 -1.5 0.671875 -2.765625q0.6875 -1.265625 1.875 -2.109375q0.875 -0.65625 2.390625 -1.09375q1.53125 -0.453125 3.265625 -0.453125q2.625 0 4.609375 0.75q1.984375 0.75 2.921875 2.046875q0.953125 1.296875 1.3125 3.453125l-3.6875 0.5q-0.265625 -1.71875 -1.46875 -2.671875q-1.203125 -0.96875 -3.40625 -0.96875q-2.609375 0 -3.71875 0.859375q-1.109375 0.859375 -1.109375 2.015625q0 0.734375 0.453125 1.3125q0.46875 0.609375 1.453125 1.015625q0.5625 0.203125 3.34375 0.96875q4.0 1.0625 5.578125 1.75q1.59375 0.671875 2.5 1.984375q0.90625 1.296875 0.90625 3.234375q0 1.890625 -1.109375 3.5625q-1.09375 1.65625 -3.171875 2.578125q-2.078125 0.90625 -4.703125 0.90625q-4.34375 0 -6.625 -1.796875q-2.28125 -1.8125 -2.90625 -5.359375zm25.3125 15.703125l-2.703125 0q6.265625 -10.078125 6.265625 -20.171875q0 -3.953125 -0.890625 -7.828125q-0.71875 -3.15625 -2.0 -6.046875q-0.8125 -1.890625 -3.375 -6.3125l2.703125 0q3.953125 5.28125 5.84375 10.59375q1.609375 4.578125 1.609375 9.5625q0 5.671875 -2.171875 10.96875q-2.171875 5.296875 -5.28125 9.234375zm23.415497 -0.453125l-0.421875 -3.546875q1.234375 0.328125 2.15625 0.328125q1.265625 0 2.015625 -0.421875q0.765625 -0.421875 1.234375 -1.171875q0.359375 -0.5625 1.15625 -2.8125q0.109375 -0.3125 0.34375 -0.921875l-8.46875 -22.34375l4.078125 0l4.640625 12.90625q0.90625 2.46875 1.609375 5.171875q0.65625 -2.609375 1.5625 -5.078125l4.765625 -13.0l3.78125 0l-8.484375 22.671875q-1.359375 3.671875 -2.125 5.0625q-1.0 1.875 -2.3125 2.734375q-1.296875 0.875 -3.09375 0.875q-1.09375 0 -2.4375 -0.453125zm20.078125 -19.75q0 -6.1875 3.453125 -9.171875q2.875 -2.46875 7.015625 -2.46875q4.59375 0 7.5 3.015625q2.921875 3.0 2.921875 8.3125q0 4.3125 -1.296875 6.78125q-1.28125 2.46875 -3.75 3.828125q-2.46875 1.359375 -5.375 1.359375q-4.6875 0 -7.578125 -3.0q-2.890625 -3.0 -2.890625 -8.65625zm3.890625 0q0 4.296875 1.859375 6.421875q1.875 2.125 4.71875 2.125q2.8125 0 4.671875 -2.140625q1.875 -2.140625 1.875 -6.53125q0 -4.125 -1.890625 -6.25q-1.875 -2.140625 -4.65625 -2.140625q-2.84375 0 -4.71875 2.125q-1.859375 2.109375 -1.859375 6.390625zm35.864014 11.15625l0 -3.28125q-2.609375 3.78125 -7.078125 3.78125q-1.96875 0 -3.6875 -0.75q-1.71875 -0.765625 -2.546875 -1.90625q-0.828125 -1.140625 -1.15625 -2.796875q-0.234375 -1.109375 -0.234375 -3.53125l0 -13.8125l3.78125 0l0 12.359375q0 2.96875 0.234375 4.0q0.359375 1.484375 1.5 2.34375q1.15625 0.84375 2.859375 0.84375q1.703125 0 3.1875 -0.875q1.5 -0.875 2.109375 -2.375q0.625 -1.5 0.625 -4.34375l0 -11.953125l3.78125 0l0 22.296875l-3.375 0zm8.879639 -26.703125l0 -4.390625l4.046875 0l0 3.46875q0 2.8125 -0.65625 4.046875q-0.890625 1.703125 -2.8125 2.5625l-0.921875 -1.5q1.140625 -0.453125 1.6875 -1.453125q0.5625 -1.0 0.625 -2.734375l-1.96875 0zm9.617493 26.703125l0 -30.78125l3.78125 0l0 30.78125l-3.78125 0zm9.476868 0l0 -30.78125l3.78125 0l0 30.78125l-3.78125 0zm36.03125 0l0 -3.28125q-2.609375 3.78125 -7.078125 3.78125q-1.96875 0 -3.6875 -0.75q-1.71875 -0.765625 -2.546875 -1.90625q-0.828125 -1.140625 -1.15625 -2.796875q-0.234375 -1.109375 -0.234375 -3.53125l0 -13.8125l3.78125 0l0 12.359375q0 2.96875 0.234375 4.0q0.359375 1.484375 1.5 2.34375q1.15625 0.84375 2.859375 0.84375q1.703125 0 3.1875 -0.875q1.5 -0.875 2.109375 -2.375q0.625 -1.5 0.625 -4.34375l0 -11.953125l3.78125 0l0 22.296875l-3.375 0zm7.5983887 -6.65625l3.734375 -0.59375q0.3125 2.25 1.75 3.453125q1.4375 1.1875 4.015625 1.1875q2.609375 0 3.859375 -1.046875q1.265625 -1.0625 1.265625 -2.5q0 -1.28125 -1.109375 -2.015625q-0.78125 -0.5 -3.859375 -1.28125q-4.15625 -1.046875 -5.765625 -1.8125q-1.609375 -0.765625 -2.4375 -2.109375q-0.828125 -1.359375 -0.828125 -3.0q0 -1.5 0.671875 -2.765625q0.6875 -1.265625 1.875 -2.109375q0.875 -0.65625 2.390625 -1.09375q1.53125 -0.453125 3.265625 -0.453125q2.625 0 4.609375 0.75q1.984375 0.75 2.921875 2.046875q0.953125 1.296875 1.3125 3.453125l-3.6875 0.5q-0.265625 -1.71875 -1.46875 -2.671875q-1.203125 -0.96875 -3.40625 -0.96875q-2.609375 0 -3.71875 0.859375q-1.109375 0.859375 -1.109375 2.015625q0 0.734375 0.453125 1.3125q0.46875 0.609375 1.453125 1.015625q0.5625 0.203125 3.34375 0.96875q4.0 1.0625 5.578125 1.75q1.59375 0.671875 2.5 1.984375q0.90625 1.296875 0.90625 3.234375q0 1.890625 -1.109375 3.5625q-1.09375 1.65625 -3.171875 2.578125q-2.078125 0.90625 -4.703125 0.90625q-4.34375 0 -6.625 -1.796875q-2.28125 -1.8125 -2.90625 -5.359375zm38.09375 -0.53125l3.90625 0.484375q-0.921875 3.421875 -3.421875 5.3125q-2.5 1.890625 -6.375 1.890625q-4.890625 0 -7.765625 -3.0q-2.859375 -3.015625 -2.859375 -8.453125q0 -5.640625 2.890625 -8.734375q2.90625 -3.109375 7.515625 -3.109375q4.484375 0 7.3125 3.046875q2.828125 3.03125 2.828125 8.5625q0 0.328125 -0.015625 1.0l-16.625 0q0.203125 3.671875 2.0625 5.625q1.875 1.953125 4.671875 1.953125q2.078125 0 3.546875 -1.078125q1.46875 -1.09375 2.328125 -3.5zm-12.40625 -6.109375l12.453125 0q-0.25 -2.8125 -1.421875 -4.21875q-1.8125 -2.171875 -4.6875 -2.171875q-2.609375 0 -4.390625 1.75q-1.765625 1.734375 -1.953125 4.640625z" fill-rule="nonzero"></path><path fill="#f3f3f3" d="m47.237854 357.4754l3.765625 -0.5q0.65625 3.203125 2.21875 4.625q1.5625 1.421875 3.8125 1.421875q2.671875 0 4.5 -1.84375q1.84375 -1.859375 1.84375 -4.578125q0 -2.609375 -1.703125 -4.296875q-1.703125 -1.6875 -4.328125 -1.6875q-1.0625 0 -2.65625 0.40625l0.40625 -3.3125q0.390625 0.046875 0.609375 0.046875q2.421875 0 4.34375 -1.25q1.9375 -1.265625 1.9375 -3.890625q0 -2.078125 -1.40625 -3.4375q-1.40625 -1.375 -3.625 -1.375q-2.203125 0 -3.671875 1.390625q-1.46875 1.375 -1.890625 4.15625l-3.78125 -0.671875q0.6875 -3.8125 3.140625 -5.890625q2.46875 -2.09375 6.109375 -2.09375q2.53125 0 4.640625 1.078125q2.125 1.078125 3.25 2.953125q1.125 1.875 1.125 3.96875q0 2.0 -1.078125 3.640625q-1.0625 1.625 -3.171875 2.59375q2.734375 0.625 4.25 2.609375q1.515625 1.984375 1.515625 4.96875q0 4.03125 -2.953125 6.84375q-2.9375 2.796875 -7.421875 2.796875q-4.0625 0 -6.734375 -2.40625q-2.671875 -2.421875 -3.046875 -6.265625zm25.817123 8.125l0 -4.296875l4.296875 0l0 4.296875l-4.296875 0z" fill-rule="nonzero"></path><path fill="#f3f3f3" d="m111.3125 365.6004l-3.5 0l0 -30.78125l3.78125 0l0 10.984375q2.390625 -3.0 6.109375 -3.0q2.0625 0 3.890625 0.828125q1.84375 0.828125 3.03125 2.328125q1.1875 1.5 1.859375 3.625q0.671875 2.109375 0.671875 4.53125q0 5.734375 -2.84375 8.859375q-2.828125 3.125 -6.796875 3.125q-3.953125 0 -6.203125 -3.296875l0 2.796875zm-0.03125 -11.3125q0 4.0 1.09375 5.796875q1.78125 2.90625 4.828125 2.90625q2.46875 0 4.265625 -2.140625q1.8125 -2.15625 1.8125 -6.421875q0 -4.359375 -1.734375 -6.4375q-1.71875 -2.078125 -4.1875 -2.078125q-2.46875 0 -4.28125 2.15625q-1.796875 2.140625 -1.796875 6.21875zm18.863998 0.15625q0 -6.1875 3.453125 -9.171875q2.875 -2.46875 7.015625 -2.46875q4.59375 0 7.5 3.015625q2.921875 3.0 2.921875 8.3125q0 4.3125 -1.296875 6.78125q-1.28125 2.46875 -3.75 3.828125q-2.46875 1.359375 -5.375 1.359375q-4.6875 0 -7.578125 -3.0q-2.890625 -3.0 -2.890625 -8.65625zm3.890625 0q0 4.296875 1.859375 6.421875q1.875 2.125 4.71875 2.125q2.8125 0 4.671875 -2.140625q1.875 -2.140625 1.875 -6.53125q0 -4.125 -1.890625 -6.25q-1.875 -2.140625 -4.65625 -2.140625q-2.84375 0 -4.71875 2.125q-1.859375 2.109375 -1.859375 6.390625zm35.864 11.15625l0 -3.28125q-2.609375 3.78125 -7.078125 3.78125q-1.96875 0 -3.6875 -0.75q-1.71875 -0.765625 -2.546875 -1.90625q-0.828125 -1.140625 -1.15625 -2.796875q-0.234375 -1.109375 -0.234375 -3.53125l0 -13.8125l3.78125 0l0 12.359375q0 2.96875 0.234375 4.0q0.359375 1.484375 1.5 2.34375q1.15625 0.84375 2.859375 0.84375q1.703125 0 3.1875 -0.875q1.5 -0.875 2.109375 -2.375q0.625 -1.5 0.625 -4.34375l0 -11.953125l3.78125 0l0 22.296875l-3.375 0zm9.098373 0l0 -22.296875l3.40625 0l0 3.171875q2.453125 -3.671875 7.09375 -3.671875q2.015625 0 3.703125 0.71875q1.703125 0.71875 2.53125 1.90625q0.84375 1.171875 1.1875 2.78125q0.203125 1.0625 0.203125 3.6875l0 13.703125l-3.78125 0l0 -13.5625q0 -2.3125 -0.4375 -3.453125q-0.4375 -1.140625 -1.5625 -1.828125q-1.125 -0.6875 -2.640625 -0.6875q-2.40625 0 -4.171875 1.53125q-1.75 1.53125 -1.75 5.828125l0 12.171875l-3.78125 0zm38.285873 -8.171875l3.703125 0.484375q-0.59375 3.84375 -3.109375 6.015625q-2.515625 2.171875 -6.15625 2.171875q-4.578125 0 -7.359375 -2.984375q-2.78125 -3.0 -2.78125 -8.578125q0 -3.609375 1.1875 -6.3125q1.203125 -2.71875 3.640625 -4.0625q2.453125 -1.359375 5.328125 -1.359375q3.625 0 5.9375 1.84375q2.3125 1.828125 2.96875 5.203125l-3.6875 0.5625q-0.515625 -2.234375 -1.859375 -3.359375q-1.328125 -1.140625 -3.21875 -1.140625q-2.84375 0 -4.640625 2.046875q-1.78125 2.046875 -1.78125 6.46875q0 4.5 1.71875 6.53125q1.71875 2.03125 4.5 2.03125q2.21875 0 3.703125 -1.359375q1.5 -1.359375 1.90625 -4.203125zm22.03125 0.984375l3.90625 0.484375q-0.921875 3.421875 -3.421875 5.3125q-2.5 1.890625 -6.375 1.890625q-4.890625 0 -7.765625 -3.0q-2.859375 -3.015625 -2.859375 -8.453125q0 -5.640625 2.890625 -8.734375q2.90625 -3.109375 7.515625 -3.109375q4.484375 0 7.3125 3.046875q2.828125 3.03125 2.828125 8.5625q0 0.328125 -0.015625 1.0l-16.625 0q0.203125 3.671875 2.0625 5.625q1.875 1.953125 4.671875 1.953125q2.078125 0 3.546875 -1.078125q1.46875 -1.09375 2.328125 -3.5zm-12.40625 -6.109375l12.453125 0q-0.25 -2.8125 -1.421875 -4.21875q-1.8125 -2.171875 -4.6875 -2.171875q-2.609375 0 -4.390625 1.75q-1.765625 1.734375 -1.953125 4.640625zm32.74652 -13.140625l0 -4.34375l3.78125 0l0 4.34375l-3.78125 0zm0 26.4375l0 -22.296875l3.78125 0l0 22.296875l-3.78125 0zm23.914368 0l0 -2.8125q-2.109375 3.3125 -6.234375 3.3125q-2.65625 0 -4.90625 -1.46875q-2.234375 -1.46875 -3.46875 -4.09375q-1.21875 -2.640625 -1.21875 -6.0625q0 -3.34375 1.109375 -6.0625q1.125 -2.71875 3.34375 -4.15625q2.21875 -1.453125 4.96875 -1.453125q2.015625 0 3.59375 0.859375q1.578125 0.84375 2.5625 2.203125l0 -11.046875l3.765625 0l0 30.78125l-3.515625 0zm-11.9375 -11.125q0 4.28125 1.796875 6.40625q1.8125 2.109375 4.265625 2.109375q2.484375 0 4.203125 -2.015625q1.734375 -2.03125 1.734375 -6.1875q0 -4.578125 -1.765625 -6.71875q-1.75 -2.140625 -4.34375 -2.140625q-2.515625 0 -4.203125 2.0625q-1.6875 2.046875 -1.6875 6.484375zm36.457733 3.9375l3.90625 0.484375q-0.921875 3.421875 -3.421875 5.3125q-2.5 1.890625 -6.375 1.890625q-4.890625 0 -7.765625 -3.0q-2.859375 -3.015625 -2.859375 -8.453125q0 -5.640625 2.890625 -8.734375q2.90625 -3.109375 7.515625 -3.109375q4.484375 0 7.3125 3.046875q2.828125 3.03125 2.828125 8.5625q0 0.328125 -0.015625 1.0l-16.625 0q0.203125 3.671875 2.0625 5.625q1.875 1.953125 4.671875 1.953125q2.078125 0 3.546875 -1.078125q1.46875 -1.09375 2.328125 -3.5zm-12.40625 -6.109375l12.453125 0q-0.25 -2.8125 -1.421875 -4.21875q-1.8125 -2.171875 -4.6875 -2.171875q-2.609375 0 -4.390625 1.75q-1.765625 1.734375 -1.953125 4.640625zm35.426483 10.546875q-2.109375 1.78125 -4.046875 2.515625q-1.9375 0.734375 -4.171875 0.734375q-3.671875 0 -5.65625 -1.796875q-1.96875 -1.796875 -1.96875 -4.578125q0 -1.640625 0.75 -2.984375q0.75 -1.359375 1.953125 -2.171875q1.203125 -0.828125 2.71875 -1.25q1.109375 -0.296875 3.359375 -0.5625q4.578125 -0.546875 6.734375 -1.3125q0.03125 -0.765625 0.03125 -0.984375q0 -2.3125 -1.078125 -3.25q-1.4375 -1.28125 -4.296875 -1.28125q-2.671875 0 -3.9375 0.9375q-1.265625 0.921875 -1.875 3.296875l-3.703125 -0.5q0.5 -2.375 1.65625 -3.828125q1.15625 -1.46875 3.34375 -2.25q2.1875 -0.78125 5.0625 -0.78125q2.859375 0 4.640625 0.671875q1.78125 0.671875 2.609375 1.6875q0.84375 1.015625 1.1875 2.5625q0.1875 0.96875 0.1875 3.5l0 5.03125q0 5.265625 0.234375 6.671875q0.25 1.390625 0.96875 2.671875l-3.953125 0q-0.59375 -1.171875 -0.75 -2.75zm-0.328125 -8.4375q-2.046875 0.84375 -6.171875 1.421875q-2.328125 0.34375 -3.296875 0.765625q-0.953125 0.40625 -1.484375 1.21875q-0.53125 0.8125 -0.53125 1.796875q0 1.515625 1.140625 2.53125q1.15625 1.0 3.359375 1.0q2.1875 0 3.875 -0.953125q1.703125 -0.96875 2.515625 -2.625q0.59375 -1.28125 0.59375 -3.78125l0 -1.375zm7.9890137 4.53125l3.734375 -0.59375q0.3125 2.25 1.75 3.453125q1.4375 1.1875 4.015625 1.1875q2.609375 0 3.859375 -1.046875q1.265625 -1.0625 1.265625 -2.5q0 -1.28125 -1.109375 -2.015625q-0.78125 -0.5 -3.859375 -1.28125q-4.15625 -1.046875 -5.765625 -1.8125q-1.609375 -0.765625 -2.4375 -2.109375q-0.828125 -1.359375 -0.828125 -3.0q0 -1.5 0.671875 -2.765625q0.6875 -1.265625 1.875 -2.109375q0.875 -0.65625 2.390625 -1.09375q1.53125 -0.453125 3.265625 -0.453125q2.625 0 4.609375 0.75q1.984375 0.75 2.921875 2.046875q0.953125 1.296875 1.3125 3.453125l-3.6875 0.5q-0.265625 -1.71875 -1.46875 -2.671875q-1.203125 -0.96875 -3.40625 -0.96875q-2.609375 0 -3.71875 0.859375q-1.109375 0.859375 -1.109375 2.015625q0 0.734375 0.453125 1.3125q0.46875 0.609375 1.453125 1.015625q0.5625 0.203125 3.34375 0.96875q4.0 1.0625 5.578125 1.75q1.59375 0.671875 2.5 1.984375q0.90625 1.296875 0.90625 3.234375q0 1.890625 -1.109375 3.5625q-1.09375 1.65625 -3.171875 2.578125q-2.078125 0.90625 -4.703125 0.90625q-4.34375 0 -6.625 -1.796875q-2.28125 -1.8125 -2.90625 -5.359375zm33.273132 -4.5q0 -6.1875 3.453125 -9.171875q2.875 -2.46875 7.015625 -2.46875q4.59375 0 7.5 3.015625q2.921875 3.0 2.921875 8.3125q0 4.3125 -1.296875 6.78125q-1.28125 2.46875 -3.75 3.828125q-2.46875 1.359375 -5.375 1.359375q-4.6875 0 -7.578125 -3.0q-2.890625 -3.0 -2.890625 -8.65625zm3.890625 0q0 4.296875 1.859375 6.421875q1.875 2.125 4.71875 2.125q2.8125 0 4.671875 -2.140625q1.875 -2.140625 1.875 -6.53125q0 -4.125 -1.890625 -6.25q-1.875 -2.140625 -4.65625 -2.140625q-2.84375 0 -4.71875 2.125q-1.859375 2.109375 -1.859375 6.390625zm22.145264 11.15625l0 -19.359375l-3.328125 0l0 -2.9375l3.328125 0l0 -2.375q0 -2.25 0.40625 -3.34375q0.546875 -1.46875 1.921875 -2.375q1.375 -0.921875 3.84375 -0.921875q1.59375 0 3.53125 0.390625l-0.5625 3.296875q-1.1875 -0.21875 -2.234375 -0.21875q-1.71875 0 -2.4375 0.734375q-0.703125 0.734375 -0.703125 2.75l0 2.0625l4.34375 0l0 2.9375l-4.34375 0l0 19.359375l-3.765625 0zm11.851257 0l0 -19.359375l-3.328125 0l0 -2.9375l3.328125 0l0 -2.375q0 -2.25 0.40625 -3.34375q0.546875 -1.46875 1.921875 -2.375q1.375 -0.921875 3.84375 -0.921875q1.59375 0 3.53125 0.390625l-0.5625 3.296875q-1.1875 -0.21875 -2.234375 -0.21875q-1.71875 0 -2.4375 0.734375q-0.703125 0.734375 -0.703125 2.75l0 2.0625l4.34375 0l0 2.9375l-4.34375 0l0 19.359375l-3.765625 0zm22.640015 8.59375l-0.421875 -3.546875q1.234375 0.328125 2.15625 0.328125q1.265625 0 2.015625 -0.421875q0.765625 -0.421875 1.234375 -1.171875q0.359375 -0.5625 1.15625 -2.8125q0.109375 -0.3125 0.34375 -0.921875l-8.46875 -22.34375l4.078125 0l4.640625 12.90625q0.90625 2.46875 1.609375 5.171875q0.65625 -2.609375 1.5625 -5.078125l4.765625 -13.0l3.78125 0l-8.484375 22.671875q-1.359375 3.671875 -2.125 5.0625q-1.0 1.875 -2.3125 2.734375q-1.296875 0.875 -3.09375 0.875q-1.09375 0 -2.4375 -0.453125zm20.078125 -19.75q0 -6.1875 3.453125 -9.171875q2.875 -2.46875 7.015625 -2.46875q4.59375 0 7.5 3.015625q2.921875 3.0 2.921875 8.3125q0 4.3125 -1.296875 6.78125q-1.28125 2.46875 -3.75 3.828125q-2.46875 1.359375 -5.375 1.359375q-4.6875 0 -7.578125 -3.0q-2.890625 -3.0 -2.890625 -8.65625zm3.890625 0q0 4.296875 1.859375 6.421875q1.875 2.125 4.71875 2.125q2.8125 0 4.671875 -2.140625q1.875 -2.140625 1.875 -6.53125q0 -4.125 -1.890625 -6.25q-1.875 -2.140625 -4.65625 -2.140625q-2.84375 0 -4.71875 2.125q-1.859375 2.109375 -1.859375 6.390625zm35.864014 11.15625l0 -3.28125q-2.609375 3.78125 -7.078125 3.78125q-1.96875 0 -3.6875 -0.75q-1.71875 -0.765625 -2.546875 -1.90625q-0.828125 -1.140625 -1.15625 -2.796875q-0.234375 -1.109375 -0.234375 -3.53125l0 -13.8125l3.78125 0l0 12.359375q0 2.96875 0.234375 4.0q0.359375 1.484375 1.5 2.34375q1.15625 0.84375 2.859375 0.84375q1.703125 0 3.1875 -0.875q1.5 -0.875 2.109375 -2.375q0.625 -1.5 0.625 -4.34375l0 -11.953125l3.78125 0l0 22.296875l-3.375 0zm9.067139 0l0 -22.296875l3.390625 0l0 3.375q1.3125 -2.375 2.40625 -3.125q1.109375 -0.75 2.421875 -0.75q1.921875 0 3.890625 1.21875l-1.296875 3.5q-1.390625 -0.8125 -2.78125 -0.8125q-1.234375 0 -2.21875 0.75q-0.984375 0.734375 -1.40625 2.0625q-0.625 2.015625 -0.625 4.40625l0 11.671875l-3.78125 0zm26.087402 0l0 -22.296875l3.40625 0l0 3.171875q2.453125 -3.671875 7.09375 -3.671875q2.015625 0 3.703125 0.71875q1.703125 0.71875 2.53125 1.90625q0.84375 1.171875 1.1875 2.78125q0.203125 1.0625 0.203125 3.6875l0 13.703125l-3.78125 0l0 -13.5625q0 -2.3125 -0.4375 -3.453125q-0.4375 -1.140625 -1.5625 -1.828125q-1.125 -0.6875 -2.640625 -0.6875q-2.40625 0 -4.171875 1.53125q-1.75 1.53125 -1.75 5.828125l0 12.171875l-3.78125 0zm38.989014 -7.1875l3.90625 0.484375q-0.921875 3.421875 -3.421875 5.3125q-2.5 1.890625 -6.375 1.890625q-4.890625 0 -7.765625 -3.0q-2.859375 -3.015625 -2.859375 -8.453125q0 -5.640625 2.890625 -8.734375q2.90625 -3.109375 7.515625 -3.109375q4.484375 0 7.3125 3.046875q2.828125 3.03125 2.828125 8.5625q0 0.328125 -0.015625 1.0l-16.625 0q0.203125 3.671875 2.0625 5.625q1.875 1.953125 4.671875 1.953125q2.078125 0 3.546875 -1.078125q1.46875 -1.09375 2.328125 -3.5zm-12.40625 -6.109375l12.453125 0q-0.25 -2.8125 -1.421875 -4.21875q-1.8125 -2.171875 -4.6875 -2.171875q-2.609375 0 -4.390625 1.75q-1.765625 1.734375 -1.953125 4.640625zm20.895264 -13.140625l0 -4.34375l3.78125 0l0 4.34375l-3.78125 0zm0 26.4375l0 -22.296875l3.78125 0l0 22.296875l-3.78125 0zm8.758118 1.84375l3.671875 0.546875q0.234375 1.703125 1.28125 2.484375q1.40625 1.046875 3.84375 1.046875q2.625 0 4.046875 -1.046875q1.4375 -1.046875 1.9375 -2.9375q0.296875 -1.15625 0.28125 -4.859375q-2.484375 2.921875 -6.1875 2.921875q-4.59375 0 -7.109375 -3.3125q-2.515625 -3.328125 -2.515625 -7.96875q0 -3.1875 1.15625 -5.875q1.15625 -2.703125 3.34375 -4.171875q2.1875 -1.46875 5.15625 -1.46875q3.9375 0 6.5 3.1875l0 -2.6875l3.484375 0l0 19.265625q0 5.21875 -1.0625 7.390625q-1.046875 2.171875 -3.359375 3.421875q-2.296875 1.265625 -5.65625 1.265625q-3.984375 0 -6.4375 -1.796875q-2.453125 -1.796875 -2.375 -5.40625zm3.125 -13.390625q0 4.390625 1.734375 6.40625q1.75 2.015625 4.375 2.015625q2.609375 0 4.375 -2.0q1.765625 -2.015625 1.765625 -6.296875q0 -4.09375 -1.828125 -6.171875q-1.8125 -2.078125 -4.375 -2.078125q-2.515625 0 -4.28125 2.046875q-1.765625 2.046875 -1.765625 6.078125zm21.285889 11.546875l0 -30.78125l3.78125 0l0 11.046875q2.65625 -3.0625 6.6875 -3.0625q2.46875 0 4.296875 0.984375q1.828125 0.96875 2.609375 2.6875q0.796875 1.71875 0.796875 5.0l0 14.125l-3.78125 0l0 -14.125q0 -2.84375 -1.234375 -4.125q-1.21875 -1.296875 -3.46875 -1.296875q-1.6875 0 -3.171875 0.875q-1.46875 0.859375 -2.109375 2.359375q-0.625 1.484375 -0.625 4.109375l0 12.203125l-3.78125 0zm27.207764 0l-3.5 0l0 -30.78125l3.78125 0l0 10.984375q2.390625 -3.0 6.109375 -3.0q2.0625 0 3.890625 0.828125q1.84375 0.828125 3.03125 2.328125q1.1875 1.5 1.859375 3.625q0.671875 2.109375 0.671875 4.53125q0 5.734375 -2.84375 8.859375q-2.828125 3.125 -6.796875 3.125q-3.953125 0 -6.203125 -3.296875l0 2.796875zm-0.03125 -11.3125q0 4.0 1.09375 5.796875q1.78125 2.90625 4.828125 2.90625q2.46875 0 4.265625 -2.140625q1.8125 -2.15625 1.8125 -6.421875q0 -4.359375 -1.734375 -6.4375q-1.71875 -2.078125 -4.1875 -2.078125q-2.46875 0 -4.28125 2.15625q-1.796875 2.140625 -1.796875 6.21875zm18.864014 0.15625q0 -6.1875 3.453125 -9.171875q2.875 -2.46875 7.015625 -2.46875q4.59375 0 7.5 3.015625q2.921875 3.0 2.921875 8.3125q0 4.3125 -1.296875 6.78125q-1.28125 2.46875 -3.75 3.828125q-2.46875 1.359375 -5.375 1.359375q-4.6875 0 -7.578125 -3.0q-2.890625 -3.0 -2.890625 -8.65625zm3.890625 0q0 4.296875 1.859375 6.421875q1.875 2.125 4.71875 2.125q2.8125 0 4.671875 -2.140625q1.875 -2.140625 1.875 -6.53125q0 -4.125 -1.890625 -6.25q-1.875 -2.140625 -4.65625 -2.140625q-2.84375 0 -4.71875 2.125q-1.859375 2.109375 -1.859375 6.390625zm21.207764 11.15625l0 -22.296875l3.390625 0l0 3.375q1.3125 -2.375 2.40625 -3.125q1.109375 -0.75 2.421875 -0.75q1.921875 0 3.890625 1.21875l-1.296875 3.5q-1.390625 -0.8125 -2.78125 -0.8125q-1.234375 0 -2.21875 0.75q-0.984375 0.734375 -1.40625 2.0625q-0.625 2.015625 -0.625 4.40625l0 11.671875l-3.78125 0zm12.736145 -6.65625l3.734375 -0.59375q0.3125 2.25 1.75 3.453125q1.4375 1.1875 4.015625 1.1875q2.609375 0 3.859375 -1.046875q1.265625 -1.0625 1.265625 -2.5q0 -1.28125 -1.109375 -2.015625q-0.78125 -0.5 -3.859375 -1.28125q-4.15625 -1.046875 -5.765625 -1.8125q-1.609375 -0.765625 -2.4375 -2.109375q-0.828125 -1.359375 -0.828125 -3.0q0 -1.5 0.671875 -2.765625q0.6875 -1.265625 1.875 -2.109375q0.875 -0.65625 2.390625 -1.09375q1.53125 -0.453125 3.265625 -0.453125q2.625 0 4.609375 0.75q1.984375 0.75 2.921875 2.046875q0.953125 1.296875 1.3125 3.453125l-3.6875 0.5q-0.265625 -1.71875 -1.46875 -2.671875q-1.203125 -0.96875 -3.40625 -0.96875q-2.609375 0 -3.71875 0.859375q-1.109375 0.859375 -1.109375 2.015625q0 0.734375 0.453125 1.3125q0.46875 0.609375 1.453125 1.015625q0.5625 0.203125 3.34375 0.96875q4.0 1.0625 5.578125 1.75q1.59375 0.671875 2.5 1.984375q0.90625 1.296875 0.90625 3.234375q0 1.890625 -1.109375 3.5625q-1.09375 1.65625 -3.171875 2.578125q-2.078125 0.90625 -4.703125 0.90625q-4.34375 0 -6.625 -1.796875q-2.28125 -1.8125 -2.90625 -5.359375z" fill-rule="nonzero"></path><path fill="#000000" fill-opacity="0.0" d="m500.22046 442.91077l413.88977 0l0 73.102356l-413.88977 0z" fill-rule="nonzero"></path><path fill="#ffffff" d="m510.72046 469.83075l0 -13.59375l6.03125 0q1.8125 0 2.75 0.359375q0.953125 0.359375 1.515625 1.296875q0.5625 0.921875 0.5625 2.046875q0 1.453125 -0.9375 2.453125q-0.921875 0.984375 -2.890625 1.25q0.71875 0.34375 1.09375 0.671875q0.78125 0.734375 1.484375 1.8125l2.375 3.703125l-2.265625 0l-1.796875 -2.828125q-0.796875 -1.21875 -1.3125 -1.875q-0.5 -0.65625 -0.90625 -0.90625q-0.40625 -0.265625 -0.8125 -0.359375q-0.3125 -0.078125 -1.015625 -0.078125l-2.078125 0l0 6.046875l-1.796875 0zm1.796875 -7.59375l3.859375 0q1.234375 0 1.921875 -0.25q0.703125 -0.265625 1.0625 -0.828125q0.375 -0.5625 0.375 -1.21875q0 -0.96875 -0.703125 -1.578125q-0.703125 -0.625 -2.21875 -0.625l-4.296875 0l0 4.5zm18.176086 4.421875l1.71875 0.21875q-0.40625 1.5 -1.515625 2.34375q-1.09375 0.828125 -2.8125 0.828125q-2.15625 0 -3.421875 -1.328125q-1.265625 -1.328125 -1.265625 -3.734375q0 -2.484375 1.265625 -3.859375q1.28125 -1.375 3.328125 -1.375q1.984375 0 3.234375 1.34375q1.25 1.34375 1.25 3.796875q0 0.140625 -0.015625 0.4375l-7.34375 0q0.09375 1.625 0.921875 2.484375q0.828125 0.859375 2.0625 0.859375q0.90625 0 1.546875 -0.46875q0.65625 -0.484375 1.046875 -1.546875zm-5.484375 -2.703125l5.5 0q-0.109375 -1.234375 -0.625 -1.859375q-0.796875 -0.96875 -2.078125 -0.96875q-1.140625 0 -1.9375 0.78125q-0.78125 0.765625 -0.859375 2.046875zm9.110107 5.875l0 -9.859375l1.5 0l0 1.390625q0.453125 -0.71875 1.21875 -1.15625q0.78125 -0.453125 1.765625 -0.453125q1.09375 0 1.796875 0.453125q0.703125 0.453125 0.984375 1.28125q1.171875 -1.734375 3.046875 -1.734375q1.46875 0 2.25 0.8125q0.796875 0.8125 0.796875 2.5l0 6.765625l-1.671875 0l0 -6.203125q0 -1.0 -0.15625 -1.4375q-0.15625 -0.453125 -0.59375 -0.71875q-0.421875 -0.265625 -1.0 -0.265625q-1.03125 0 -1.71875 0.6875q-0.6875 0.6875 -0.6875 2.21875l0 5.71875l-1.671875 0l0 -6.40625q0 -1.109375 -0.40625 -1.65625q-0.40625 -0.5625 -1.34375 -0.5625q-0.703125 0 -1.3125 0.375q-0.59375 0.359375 -0.859375 1.078125q-0.265625 0.71875 -0.265625 2.0625l0 5.109375l-1.671875 0zm22.290771 -3.171875l1.71875 0.21875q-0.40625 1.5 -1.515625 2.34375q-1.09375 0.828125 -2.8125 0.828125q-2.15625 0 -3.421875 -1.328125q-1.265625 -1.328125 -1.265625 -3.734375q0 -2.484375 1.265625 -3.859375q1.28125 -1.375 3.328125 -1.375q1.984375 0 3.234375 1.34375q1.25 1.34375 1.25 3.796875q0 0.140625 -0.015625 0.4375l-7.34375 0q0.09375 1.625 0.921875 2.484375q0.828125 0.859375 2.0625 0.859375q0.90625 0 1.546875 -0.46875q0.65625 -0.484375 1.046875 -1.546875zm-5.484375 -2.703125l5.5 0q-0.109375 -1.234375 -0.625 -1.859375q-0.796875 -0.96875 -2.078125 -0.96875q-1.140625 0 -1.9375 0.78125q-0.78125 0.765625 -0.859375 2.046875zm9.110107 5.875l0 -9.859375l1.5 0l0 1.390625q0.453125 -0.71875 1.21875 -1.15625q0.78125 -0.453125 1.765625 -0.453125q1.09375 0 1.796875 0.453125q0.703125 0.453125 0.984375 1.28125q1.171875 -1.734375 3.046875 -1.734375q1.46875 0 2.25 0.8125q0.796875 0.8125 0.796875 2.5l0 6.765625l-1.671875 0l0 -6.203125q0 -1.0 -0.15625 -1.4375q-0.15625 -0.453125 -0.59375 -0.71875q-0.421875 -0.265625 -1.0 -0.265625q-1.03125 0 -1.71875 0.6875q-0.6875 0.6875 -0.6875 2.21875l0 5.71875l-1.671875 0l0 -6.40625q0 -1.109375 -0.40625 -1.65625q-0.40625 -0.5625 -1.34375 -0.5625q-0.703125 0 -1.3125 0.375q-0.59375 0.359375 -0.859375 1.078125q-0.265625 0.71875 -0.265625 2.0625l0 5.109375l-1.671875 0zm17.087646 0l-1.546875 0l0 -13.59375l1.65625 0l0 4.84375q1.0625 -1.328125 2.703125 -1.328125q0.90625 0 1.71875 0.375q0.8125 0.359375 1.328125 1.03125q0.53125 0.65625 0.828125 1.59375q0.296875 0.9375 0.296875 2.0q0 2.53125 -1.25 3.921875q-1.25 1.375 -3.0 1.375q-1.75 0 -2.734375 -1.453125l0 1.234375zm-0.015625 -5.0q0 1.765625 0.46875 2.5625q0.796875 1.28125 2.140625 1.28125q1.09375 0 1.890625 -0.9375q0.796875 -0.953125 0.796875 -2.84375q0 -1.921875 -0.765625 -2.84375q-0.765625 -0.921875 -1.84375 -0.921875q-1.09375 0 -1.890625 0.953125q-0.796875 0.953125 -0.796875 2.75zm15.594482 1.828125l1.71875 0.21875q-0.40625 1.5 -1.515625 2.34375q-1.09375 0.828125 -2.8125 0.828125q-2.15625 0 -3.421875 -1.328125q-1.265625 -1.328125 -1.265625 -3.734375q0 -2.484375 1.265625 -3.859375q1.28125 -1.375 3.328125 -1.375q1.984375 0 3.234375 1.34375q1.25 1.34375 1.25 3.796875q0 0.140625 -0.015625 0.4375l-7.34375 0q0.09375 1.625 0.921875 2.484375q0.828125 0.859375 2.0625 0.859375q0.90625 0 1.546875 -0.46875q0.65625 -0.484375 1.046875 -1.546875zm-5.484375 -2.703125l5.5 0q-0.109375 -1.234375 -0.625 -1.859375q-0.796875 -0.96875 -2.078125 -0.96875q-1.140625 0 -1.9375 0.78125q-0.78125 0.765625 -0.859375 2.046875zm9.094482 5.875l0 -9.859375l1.5 0l0 1.5q0.578125 -1.046875 1.0625 -1.375q0.484375 -0.34375 1.078125 -0.34375q0.84375 0 1.71875 0.546875l-0.578125 1.546875q-0.609375 -0.359375 -1.234375 -0.359375q-0.546875 0 -0.984375 0.328125q-0.421875 0.328125 -0.609375 0.90625q-0.28125 0.890625 -0.28125 1.953125l0 5.15625l-1.671875 0zm6.6970215 -7.953125l0 -1.90625l1.90625 0l0 1.90625l-1.90625 0zm0 7.953125l0 -1.90625l1.90625 0l0 1.90625l-1.90625 0zm9.819763 3.796875l-0.171875 -1.5625q0.546875 0.140625 0.953125 0.140625q0.546875 0 0.875 -0.1875q0.34375 -0.1875 0.5625 -0.515625q0.15625 -0.25 0.5 -1.25q0.046875 -0.140625 0.15625 -0.40625l-3.734375 -9.875l1.796875 0l2.046875 5.71875q0.40625 1.078125 0.71875 2.28125q0.28125 -1.15625 0.6875 -2.25l2.09375 -5.75l1.671875 0l-3.75 10.03125q-0.59375 1.625 -0.9375 2.234375q-0.4375 0.828125 -1.015625 1.203125q-0.578125 0.390625 -1.375 0.390625q-0.484375 0 -1.078125 -0.203125zm8.78125 -8.71875q0 -2.734375 1.53125 -4.0625q1.265625 -1.09375 3.09375 -1.09375q2.03125 0 3.3125 1.34375q1.296875 1.328125 1.296875 3.671875q0 1.90625 -0.578125 3.0q-0.5625 1.078125 -1.65625 1.6875q-1.078125 0.59375 -2.375 0.59375q-2.0625 0 -3.34375 -1.328125q-1.28125 -1.328125 -1.28125 -3.8125zm1.71875 0q0 1.890625 0.828125 2.828125q0.828125 0.9375 2.078125 0.9375q1.25 0 2.0625 -0.9375q0.828125 -0.953125 0.828125 -2.890625q0 -1.828125 -0.828125 -2.765625q-0.828125 -0.9375 -2.0625 -0.9375q-1.25 0 -2.078125 0.9375q-0.828125 0.9375 -0.828125 2.828125zm15.735107 4.921875l0 -1.453125q-1.140625 1.671875 -3.125 1.671875q-0.859375 0 -1.625 -0.328125q-0.75 -0.34375 -1.125 -0.84375q-0.359375 -0.5 -0.515625 -1.234375q-0.09375 -0.5 -0.09375 -1.5625l0 -6.109375l1.671875 0l0 5.46875q0 1.3125 0.09375 1.765625q0.15625 0.65625 0.671875 1.03125q0.515625 0.375 1.265625 0.375q0.75 0 1.40625 -0.375q0.65625 -0.390625 0.921875 -1.046875q0.28125 -0.671875 0.28125 -1.9375l0 -5.28125l1.671875 0l0 9.859375l-1.5 0zm3.9069214 0l0 -9.859375l1.5 0l0 1.5q0.578125 -1.046875 1.0625 -1.375q0.484375 -0.34375 1.078125 -0.34375q0.84375 0 1.71875 0.546875l-0.578125 1.546875q-0.609375 -0.359375 -1.234375 -0.359375q-0.546875 0 -0.984375 0.328125q-0.421875 0.328125 -0.609375 0.90625q-0.28125 0.890625 -0.28125 1.953125l0 5.15625l-1.671875 0zm11.411621 3.78125l0 -13.640625l1.53125 0l0 1.28125q0.53125 -0.75 1.203125 -1.125q0.6875 -0.375 1.640625 -0.375q1.265625 0 2.234375 0.65625q0.96875 0.640625 1.453125 1.828125q0.5 1.1875 0.5 2.59375q0 1.515625 -0.546875 2.734375q-0.546875 1.203125 -1.578125 1.84375q-1.03125 0.640625 -2.171875 0.640625q-0.84375 0 -1.515625 -0.34375q-0.65625 -0.359375 -1.078125 -0.890625l0 4.796875l-1.671875 0zm1.515625 -8.65625q0 1.90625 0.765625 2.8125q0.78125 0.90625 1.875 0.90625q1.109375 0 1.890625 -0.9375q0.796875 -0.9375 0.796875 -2.921875q0 -1.875 -0.78125 -2.8125q-0.765625 -0.9375 -1.84375 -0.9375q-1.0625 0 -1.890625 1.0q-0.8125 1.0 -0.8125 2.890625zm8.844482 4.875l0 -9.859375l1.5 0l0 1.5q0.578125 -1.046875 1.0625 -1.375q0.484375 -0.34375 1.078125 -0.34375q0.84375 0 1.71875 0.546875l-0.578125 1.546875q-0.609375 -0.359375 -1.234375 -0.359375q-0.546875 0 -0.984375 0.328125q-0.421875 0.328125 -0.609375 0.90625q-0.28125 0.890625 -0.28125 1.953125l0 5.15625l-1.671875 0zm5.6032715 -4.921875q0 -2.734375 1.53125 -4.0625q1.265625 -1.09375 3.09375 -1.09375q2.03125 0 3.3125 1.34375q1.296875 1.328125 1.296875 3.671875q0 1.90625 -0.578125 3.0q-0.5625 1.078125 -1.65625 1.6875q-1.078125 0.59375 -2.375 0.59375q-2.0625 0 -3.34375 -1.328125q-1.28125 -1.328125 -1.28125 -3.8125zm1.71875 0q0 1.890625 0.828125 2.828125q0.828125 0.9375 2.078125 0.9375q1.25 0 2.0625 -0.9375q0.828125 -0.953125 0.828125 -2.890625q0 -1.828125 -0.828125 -2.765625q-0.828125 -0.9375 -2.0625 -0.9375q-1.25 0 -2.078125 0.9375q-0.828125 0.9375 -0.828125 2.828125zm9.281982 -6.734375l0 -1.9375l1.65625 0l0 1.9375l-1.65625 0zm-2.125 15.484375l0.3125 -1.421875q0.5 0.125 0.796875 0.125q0.515625 0 0.765625 -0.34375q0.25 -0.328125 0.25 -1.6875l0 -10.359375l1.65625 0l0 10.390625q0 1.828125 -0.46875 2.546875q-0.59375 0.921875 -2.0 0.921875q-0.671875 0 -1.3125 -0.171875zm13.019836 -7.0l1.71875 0.21875q-0.40625 1.5 -1.515625 2.34375q-1.09375 0.828125 -2.8125 0.828125q-2.15625 0 -3.421875 -1.328125q-1.265625 -1.328125 -1.265625 -3.734375q0 -2.484375 1.265625 -3.859375q1.28125 -1.375 3.328125 -1.375q1.984375 0 3.234375 1.34375q1.25 1.34375 1.25 3.796875q0 0.140625 -0.015625 0.4375l-7.34375 0q0.09375 1.625 0.921875 2.484375q0.828125 0.859375 2.0625 0.859375q0.90625 0 1.546875 -0.46875q0.65625 -0.484375 1.046875 -1.546875zm-5.484375 -2.703125l5.5 0q-0.109375 -1.234375 -0.625 -1.859375q-0.796875 -0.96875 -2.078125 -0.96875q-1.140625 0 -1.9375 0.78125q-0.78125 0.765625 -0.859375 2.046875zm15.547607 2.265625l1.640625 0.21875q-0.265625 1.6875 -1.375 2.65625q-1.109375 0.953125 -2.734375 0.953125q-2.015625 0 -3.25 -1.3125q-1.21875 -1.328125 -1.21875 -3.796875q0 -1.59375 0.515625 -2.78125q0.53125 -1.203125 1.609375 -1.796875q1.09375 -0.609375 2.359375 -0.609375q1.609375 0 2.625 0.8125q1.015625 0.8125 1.3125 2.3125l-1.625 0.25q-0.234375 -1.0 -0.828125 -1.5q-0.59375 -0.5 -1.421875 -0.5q-1.265625 0 -2.0625 0.90625q-0.78125 0.90625 -0.78125 2.859375q0 1.984375 0.765625 2.890625q0.765625 0.890625 1.984375 0.890625q0.984375 0 1.640625 -0.59375q0.65625 -0.609375 0.84375 -1.859375zm6.546875 2.109375l0.234375 1.484375q-0.703125 0.140625 -1.265625 0.140625q-0.90625 0 -1.40625 -0.28125q-0.5 -0.296875 -0.703125 -0.75q-0.203125 -0.46875 -0.203125 -1.984375l0 -5.65625l-1.234375 0l0 -1.3125l1.234375 0l0 -2.4375l1.65625 -1.0l0 3.4375l1.6875 0l0 1.3125l-1.6875 0l0 5.75q0 0.71875 0.078125 0.921875q0.09375 0.203125 0.296875 0.328125q0.203125 0.125 0.578125 0.125q0.265625 0 0.734375 -0.078125zm6.710327 1.5l0 -9.859375l1.5 0l0 1.390625q0.453125 -0.71875 1.21875 -1.15625q0.78125 -0.453125 1.765625 -0.453125q1.09375 0 1.796875 0.453125q0.703125 0.453125 0.984375 1.28125q1.171875 -1.734375 3.046875 -1.734375q1.46875 0 2.25 0.8125q0.796875 0.8125 0.796875 2.5l0 6.765625l-1.671875 0l0 -6.203125q0 -1.0 -0.15625 -1.4375q-0.15625 -0.453125 -0.59375 -0.71875q-0.421875 -0.265625 -1.0 -0.265625q-1.03125 0 -1.71875 0.6875q-0.6875 0.6875 -0.6875 2.21875l0 5.71875l-1.671875 0l0 -6.40625q0 -1.109375 -0.40625 -1.65625q-0.40625 -0.5625 -1.34375 -0.5625q-0.703125 0 -1.3125 0.375q-0.59375 0.359375 -0.859375 1.078125q-0.265625 0.71875 -0.265625 2.0625l0 5.109375l-1.671875 0zm21.993958 0l0 -1.453125q-1.140625 1.671875 -3.125 1.671875q-0.859375 0 -1.625 -0.328125q-0.75 -0.34375 -1.125 -0.84375q-0.359375 -0.5 -0.515625 -1.234375q-0.09375 -0.5 -0.09375 -1.5625l0 -6.109375l1.671875 0l0 5.46875q0 1.3125 0.09375 1.765625q0.15625 0.65625 0.671875 1.03125q0.515625 0.375 1.265625 0.375q0.75 0 1.40625 -0.375q0.65625 -0.390625 0.921875 -1.046875q0.28125 -0.671875 0.28125 -1.9375l0 -5.28125l1.671875 0l0 9.859375l-1.5 0zm3.2506714 -2.9375l1.65625 -0.265625q0.140625 1.0 0.765625 1.53125q0.640625 0.515625 1.78125 0.515625q1.15625 0 1.703125 -0.46875q0.5625 -0.46875 0.5625 -1.09375q0 -0.5625 -0.484375 -0.890625q-0.34375 -0.21875 -1.703125 -0.5625q-1.84375 -0.46875 -2.5625 -0.796875q-0.703125 -0.34375 -1.078125 -0.9375q-0.359375 -0.609375 -0.359375 -1.328125q0 -0.65625 0.296875 -1.21875q0.3125 -0.5625 0.828125 -0.9375q0.390625 -0.28125 1.0625 -0.484375q0.671875 -0.203125 1.4375 -0.203125q1.171875 0 2.046875 0.34375q0.875 0.328125 1.28125 0.90625q0.421875 0.5625 0.578125 1.515625l-1.625 0.21875q-0.109375 -0.75 -0.65625 -1.171875q-0.53125 -0.4375 -1.5 -0.4375q-1.15625 0 -1.640625 0.390625q-0.484375 0.375 -0.484375 0.875q0 0.328125 0.203125 0.59375q0.203125 0.265625 0.640625 0.4375q0.25 0.09375 1.46875 0.4375q1.765625 0.46875 2.46875 0.765625q0.703125 0.296875 1.09375 0.875q0.40625 0.578125 0.40625 1.4375q0 0.828125 -0.484375 1.578125q-0.484375 0.734375 -1.40625 1.140625q-0.921875 0.390625 -2.078125 0.390625q-1.921875 0 -2.9375 -0.796875q-1.0 -0.796875 -1.28125 -2.359375zm13.65625 1.4375l0.234375 1.484375q-0.703125 0.140625 -1.265625 0.140625q-0.90625 0 -1.40625 -0.28125q-0.5 -0.296875 -0.703125 -0.75q-0.203125 -0.46875 -0.203125 -1.984375l0 -5.65625l-1.234375 0l0 -1.3125l1.234375 0l0 -2.4375l1.65625 -1.0l0 3.4375l1.6875 0l0 1.3125l-1.6875 0l0 5.75q0 0.71875 0.078125 0.921875q0.09375 0.203125 0.296875 0.328125q0.203125 0.125 0.578125 0.125q0.265625 0 0.734375 -0.078125zm8.257263 1.5l-1.546875 0l0 -13.59375l1.65625 0l0 4.84375q1.0625 -1.328125 2.703125 -1.328125q0.90625 0 1.71875 0.375q0.8125 0.359375 1.328125 1.03125q0.53125 0.65625 0.828125 1.59375q0.296875 0.9375 0.296875 2.0q0 2.53125 -1.25 3.921875q-1.25 1.375 -3.0 1.375q-1.75 0 -2.734375 -1.453125l0 1.234375zm-0.015625 -5.0q0 1.765625 0.46875 2.5625q0.796875 1.28125 2.140625 1.28125q1.09375 0 1.890625 -0.9375q0.796875 -0.953125 0.796875 -2.84375q0 -1.921875 -0.765625 -2.84375q-0.765625 -0.921875 -1.84375 -0.921875q-1.09375 0 -1.890625 0.953125q-0.796875 0.953125 -0.796875 2.75zm15.594482 1.828125l1.71875 0.21875q-0.40625 1.5 -1.515625 2.34375q-1.09375 0.828125 -2.8125 0.828125q-2.15625 0 -3.421875 -1.328125q-1.265625 -1.328125 -1.265625 -3.734375q0 -2.484375 1.265625 -3.859375q1.28125 -1.375 3.328125 -1.375q1.984375 0 3.234375 1.34375q1.25 1.34375 1.25 3.796875q0 0.140625 -0.015625 0.4375l-7.34375 0q0.09375 1.625 0.921875 2.484375q0.828125 0.859375 2.0625 0.859375q0.90625 0 1.546875 -0.46875q0.65625 -0.484375 1.046875 -1.546875zm-5.484375 -2.703125l5.5 0q-0.109375 -1.234375 -0.625 -1.859375q-0.796875 -0.96875 -2.078125 -0.96875q-1.140625 0 -1.9375 0.78125q-0.78125 0.765625 -0.859375 2.046875zm23.43396 -7.71875l1.796875 0l0 7.84375q0 2.0625 -0.46875 3.265625q-0.453125 1.203125 -1.671875 1.96875q-1.203125 0.75 -3.171875 0.75q-1.90625 0 -3.125 -0.65625q-1.21875 -0.65625 -1.734375 -1.90625q-0.515625 -1.25 -0.515625 -3.421875l0 -7.84375l1.796875 0l0 7.84375q0 1.765625 0.328125 2.609375q0.328125 0.84375 1.125 1.296875q0.8125 0.453125 1.96875 0.453125q1.984375 0 2.828125 -0.890625q0.84375 -0.90625 0.84375 -3.46875l0 -7.84375zm4.5354614 13.59375l0 -13.59375l1.84375 0l7.140625 10.671875l0 -10.671875l1.71875 0l0 13.59375l-1.84375 0l-7.140625 -10.6875l0 10.6875l-1.71875 0zm13.785461 0l0 -13.59375l1.8125 0l0 13.59375l-1.8125 0zm15.183289 -1.453125q1.265625 0.859375 2.3125 1.265625l-0.53125 1.25q-1.453125 -0.53125 -2.921875 -1.671875q-1.5 0.84375 -3.328125 0.84375q-1.84375 0 -3.359375 -0.890625q-1.5 -0.890625 -2.3125 -2.5q-0.8125 -1.625 -0.8125 -3.640625q0 -2.015625 0.8125 -3.65625q0.828125 -1.65625 2.328125 -2.515625q1.515625 -0.875 3.375 -0.875q1.890625 0 3.390625 0.90625q1.515625 0.890625 2.3125 2.5q0.796875 1.609375 0.796875 3.625q0 1.6875 -0.515625 3.03125q-0.515625 1.328125 -1.546875 2.328125zm-3.953125 -2.296875q1.5625 0.421875 2.5625 1.296875q1.59375 -1.453125 1.59375 -4.359375q0 -1.65625 -0.5625 -2.875q-0.5625 -1.234375 -1.640625 -1.921875q-1.078125 -0.6875 -2.421875 -0.6875q-2.015625 0 -3.34375 1.390625q-1.328125 1.375 -1.328125 4.109375q0 2.65625 1.3125 4.078125q1.3125 1.40625 3.359375 1.40625q0.953125 0 1.8125 -0.359375q-0.84375 -0.546875 -1.78125 -0.78125l0.4375 -1.296875zm17.089539 -9.84375l1.796875 0l0 7.84375q0 2.0625 -0.46875 3.265625q-0.453125 1.203125 -1.671875 1.96875q-1.203125 0.75 -3.171875 0.75q-1.90625 0 -3.125 -0.65625q-1.21875 -0.65625 -1.734375 -1.90625q-0.515625 -1.25 -0.515625 -3.421875l0 -7.84375l1.796875 0l0 7.84375q0 1.765625 0.328125 2.609375q0.328125 0.84375 1.125 1.296875q0.8125 0.453125 1.96875 0.453125q1.984375 0 2.828125 -0.890625q0.84375 -0.90625 0.84375 -3.46875l0 -7.84375zm4.5823364 13.59375l0 -13.59375l9.84375 0l0 1.59375l-8.046875 0l0 4.171875l7.53125 0l0 1.59375l-7.53125 0l0 4.625l8.359375 0l0 1.609375l-10.15625 0zm12.6623535 0l0 -1.90625l1.90625 0l0 1.90625l-1.90625 0z" fill-rule="nonzero"></path></g></svg>

